<?xml version="1.0" standalone="no"?>
<svg xmlns="http://www.w3.org/2000/svg" style="isolation:isolate" width="100" height="100">
   <defs>
    <clipPath id="a">
      <path d="M0 0h100v100H0z"/>
    </clipPath>
  <defs>
    <clipPath id="a">
      <path d="M0 0h100v100H0z"/>
    </clipPath>
  </defs>
  <g clip-path="url(#a)">
    <path d="M47.415 5.066C23.207 6.742 5.01 26.009 5 49.976c-.015 33.455 35.219 55.187 65.167 40.196 16.263-8.14 26.436-26.229 24.625-43.786-.211-2.052-1.657-2.742-3.623-1.729-4.204 2.164-8.593.731-10.549-3.444-.703-1.5-1.903-1.984-3.227-1.299-5.872 3.035-13.033 1.241-16.651-4.17-2.609-3.903-2.905-8.776-.79-13.014.775-1.554.384-2.621-1.251-3.409-4.117-1.985-5.547-6.256-3.476-10.382.861-1.717.661-2.865-.611-3.5-.671-.335-4.719-.545-7.199-.373zm29.358.061c-3.206.839-4.341 4.854-2.026 7.171 3.036 3.04 8.15.278 7.259-3.921-.487-2.3-2.97-3.842-5.233-3.25zM50.82 9.49c-.025.083-.192.531-.369.994-.526 1.372-.581 1.708-.473 2.884.305 3.308 2.26 6.45 5.249 8.434.424.282.42.221.082 1.117-2.733 7.248-.055 15.413 6.515 19.866 4.559 3.091 9.951 3.746 15.211 1.851.46-.166.858-.276.884-.246.027.031.226.298.441.595 2.058 2.834 4.84 4.579 7.896 4.951 1.334.162 1.897.077 3.444-.521.481-.186.886-.328.898-.315.051.051.006 2.878-.059 3.768-1.773 24.036-23.686 41.218-47.443 37.201C21.375 86.396 6.534 65.975 9.691 44.108 12.548 24.331 29.48 9.532 49.461 9.351l1.405-.013-.046.152zM73.6 22.307c-2.784.948-3.009 4.708-.358 5.967 1.923.913 4.241-.343 4.541-2.46.332-2.34-1.963-4.264-4.183-3.507zm-31.972 6.358c-2.062.555-3.05 3.04-1.912 4.812 1.81 2.819 6.068 1.474 5.933-1.874-.081-2.022-2.058-3.466-4.021-2.938zm50.422.037c-1.169.449-1.721 1.84-1.169 2.945.94 1.88 3.653 1.491 4.046-.581.299-1.578-1.364-2.946-2.877-2.364zM27.235 39.39c-5.587 1.198-7.001 8.506-2.257 11.669 4.003 2.669 9.376.158 9.95-4.651.509-4.262-3.498-7.917-7.693-7.018zm20.674 8.601c-2.291.726-2.997 3.636-1.295 5.342 1.557 1.562 4.257 1.088 5.188-.909 1.177-2.526-1.237-5.274-3.893-4.433zM31.792 62.934c-2.767.669-4.12 3.906-2.664 6.376 1.587 2.691 5.523 2.792 7.257.186 2.146-3.227-.826-7.472-4.593-6.562zm28.649 2.185c-4.901 1.315-5.517 7.965-.934 10.079 4.105 1.894 8.621-1.939 7.412-6.29-.77-2.771-3.758-4.519-6.478-3.789z" fill-rule="evenodd"/>
  </g>
</svg>
