<?xml version="1.0" standalone="no"?><!-- Generator: Gravit.io --><svg xmlns="http://www.w3.org/2000/svg" xmlns:xlink="http://www.w3.org/1999/xlink" style="isolation:isolate" viewBox="0 0 100 100" width="100" height="100"><defs><clipPath id="_clipPath_8DHEeK7e93JMEF8O0ztlcav1RcE21KPQ"><rect width="100" height="100"/></clipPath></defs><g clip-path="url(#_clipPath_8DHEeK7e93JMEF8O0ztlcav1RcE21KPQ)"><linearGradient id="_lgradient_0" x1="0.2461529602622285" y1="-0.5739081746920491" x2="0.30426865666353964" y2="1.0189817760372484" gradientTransform="matrix(77.19,0,0,89.3,12,11)" gradientUnits="userSpaceOnUse"><stop offset="0%" stop-opacity="0" style="stop-color:rgb(255,255,255)"/><stop offset="85.65217391304348%" stop-opacity="1" style="stop-color:rgb(255,255,255)"/></linearGradient><path d=" M 72.8 97.9 L 12 11 L 26.5 11 L 88.7 97.9 C 89.7 99.2 89.1 100.3 87.5 100.3 L 77.4 100.3 C 75.8 100.3 73.7 99.3 72.8 97.9 L 72.8 97.9 L 72.8 97.9 Z " fill="url(#_lgradient_0)"/><path d=" M 25.7 97.1 L 25.3 61.06 L 50.1 61.06 Q 60.1 61.06 50.1 61.06 C 67.4 61.06 85.8 56.36 85.2 30.83 C 85.3 9.21 68.8 0.3 50.3 0 L 14.9 0 C 14.14 -0.03 13.4 0.26 12.86 0.78 C 12.31 1.31 12 2.04 12 2.8 L 12 10.81 L 51.1 10.81 C 56.8 11.01 62.6 12.31 67.1 16.42 C 70.97 20.15 73.08 25.35 72.9 30.73 C 72.9 36.24 71.2 41.64 67.1 45.14 C 62.4 49.15 56.1 50.15 50.3 50.15 L 14.8 50.15 C 13.25 50.15 12 51.4 12 52.95 L 12 97.1 C 12.05 98.71 13.38 100 15 100 L 22.8 100 C 24.4 100 25.7 98.7 25.7 97 L 25.7 97.1 L 25.7 97.1 Z " fill="rgb(255,255,255)"/></g></svg>