<?xml version="1.0" standalone="no"?><!-- Generator: Gravit.io --><svg xmlns="http://www.w3.org/2000/svg" xmlns:xlink="http://www.w3.org/1999/xlink" style="isolation:isolate" viewBox="0 0 100 100" width="100" height="100"><defs><clipPath id="_clipPath_zjpzlhgVPyIJzTcR4gpsD1PAe9WZRrGV"><rect width="100" height="100"/></clipPath></defs><g clip-path="url(#_clipPath_zjpzlhgVPyIJzTcR4gpsD1PAe9WZRrGV)"><g><g><g><g><path d=" M 31.983 3.626 L 31.983 2.5 L 29.833 2.5 C 29.522 2.5 29.256 2.61 29.036 2.83 C 28.817 3.049 28.707 3.315 28.707 3.626 L 28.707 5.776 L 31.983 5.776 L 31.983 3.626 Z " fill="rgb(0,0,0)"/></g></g></g><g><g><rect x="31.983" y="2.5" width="3.276" height="3.276" transform="matrix(1,0,0,1,0,0)" fill="rgb(0,0,0)"/></g></g><g><g><rect x="35.259" y="2.5" width="3.276" height="3.276" transform="matrix(1,0,0,1,0,0)" fill="rgb(0,0,0)"/></g></g><g><g><path d=" M 39.405 5.776 C 39.022 5.776 38.534 5.776 38.534 5.776 C 38.534 5.776 38.534 4.662 38.535 4.139 C 38.534 3.732 38.535 2.503 38.535 2.503 L 39.356 2.503 C 39.356 2.503 41.469 2.434 41.723 2.945 C 42.117 3.735 40.312 5.776 39.405 5.776 Z " fill="rgb(0,0,0)"/></g></g><g><g><g><path d=" M 48.209 5.251 C 49.031 3.717 46.052 1.511 45.238 3.028 C 44.418 4.56 47.4 6.761 48.209 5.251 Z " fill="rgb(0,0,0)"/></g></g></g><g><g><path d=" M 54.914 4.905 C 54.914 5.288 54.914 5.776 54.914 5.776 C 54.914 5.776 53.8 5.776 53.277 5.776 C 52.869 5.776 51.641 5.776 51.641 5.776 L 51.641 4.955 C 51.641 4.955 51.572 2.809 52.083 2.555 C 52.873 2.161 54.914 3.998 54.914 4.905 Z " fill="rgb(0,0,0)"/></g></g><g><g><path d=" M 61.465 4.905 C 61.465 5.288 61.466 5.776 61.466 5.776 C 61.466 5.776 60.351 5.776 59.829 5.776 C 59.421 5.776 58.193 5.776 58.193 5.776 L 58.193 4.955 C 58.193 4.955 58.124 2.809 58.635 2.555 C 59.424 2.161 61.465 3.998 61.465 4.905 Z " fill="rgb(0,0,0)"/></g></g><g><g><path d=" M 71.293 4.905 C 71.293 5.288 71.293 5.776 71.293 5.776 C 71.293 5.776 70.179 5.776 69.657 5.776 C 69.249 5.776 68.02 5.776 68.02 5.776 L 68.02 4.955 C 68.02 4.955 67.952 2.809 68.462 2.555 C 69.252 2.161 71.293 3.998 71.293 4.905 Z " fill="rgb(0,0,0)"/></g></g><g><g><g><path d=" M 31.983 5.776 L 28.707 5.776 L 28.707 7.926 C 28.707 8.237 28.817 8.503 29.036 8.722 C 29.256 8.942 29.522 9.052 29.833 9.052 L 31.983 9.052 L 31.983 5.776 Z " fill="rgb(0,0,0)"/></g></g></g><g><g><rect x="31.983" y="5.776" width="3.276" height="3.276" transform="matrix(1,0,0,1,0,0)" fill="rgb(0,0,0)"/></g></g><g><g><rect x="35.259" y="5.776" width="3.276" height="3.276" transform="matrix(1,0,0,1,0,0)" fill="rgb(0,0,0)"/></g></g><g><g><rect x="51.638" y="5.776" width="3.276" height="3.276" transform="matrix(1,0,0,1,0,0)" fill="rgb(0,0,0)"/></g></g><g><g><rect x="58.19" y="5.776" width="3.276" height="3.276" transform="matrix(1,0,0,1,0,0)" fill="rgb(0,0,0)"/></g></g><g><g><g><path d=" M 64.741 6.902 C 64.741 6.591 64.632 6.325 64.412 6.105 C 64.192 5.886 63.927 5.776 63.615 5.776 L 61.466 5.776 L 61.466 9.052 L 64.741 9.052 L 64.741 6.902 Z " fill="rgb(0,0,0)"/></g></g></g><g><g><path d=" M 68.017 6.614 C 68.017 6.231 68.017 5.743 68.017 5.743 C 68.017 5.743 69.131 5.743 69.654 5.743 C 70.062 5.743 71.29 5.743 71.29 5.743 L 71.29 6.564 C 71.29 6.564 71.359 8.71 70.848 8.964 C 70.058 9.358 68.017 7.521 68.017 6.614 Z " fill="rgb(0,0,0)"/></g></g><g><g><rect x="31.983" y="9.052" width="3.276" height="3.276" transform="matrix(1,0,0,1,0,0)" fill="rgb(0,0,0)"/></g></g><g><g><rect x="35.259" y="9.052" width="3.276" height="3.276" transform="matrix(1,0,0,1,0,0)" fill="rgb(0,0,0)"/></g></g><g><g><path d=" M 45.086 11.457 C 45.086 11.84 45.086 12.328 45.086 12.328 C 45.086 12.328 43.972 12.328 43.45 12.328 C 43.042 12.328 41.813 12.328 41.813 12.328 L 41.813 11.506 C 41.813 11.506 41.745 9.361 42.255 9.106 C 43.045 8.713 45.086 10.55 45.086 11.457 Z " fill="rgb(0,0,0)"/></g></g><g><g><path d=" M 50.767 9.052 C 51.15 9.052 51.638 9.052 51.638 9.052 C 51.638 9.052 51.638 10.166 51.638 10.688 C 51.638 11.096 51.638 12.324 51.638 12.324 L 50.817 12.324 C 50.817 12.324 48.671 12.393 48.417 11.883 C 48.023 11.093 49.86 9.052 50.767 9.052 Z " fill="rgb(0,0,0)"/></g></g><g><g><g><path d=" M 54.914 9.052 L 51.638 9.052 L 51.638 12.328 L 53.788 12.328 C 54.099 12.328 54.365 12.218 54.584 11.998 C 54.804 11.778 54.914 11.513 54.914 11.202 L 54.914 9.052 Z " fill="rgb(0,0,0)"/></g></g></g><g><g><g><path d=" M 61.466 9.052 L 58.19 9.052 L 58.19 11.202 C 58.19 11.513 58.299 11.778 58.519 11.998 C 58.739 12.218 59.004 12.328 59.316 12.328 L 61.466 12.328 L 61.466 9.052 Z " fill="rgb(0,0,0)"/></g></g></g><g><g><g><path d=" M 64.741 9.052 L 61.466 9.052 L 61.466 12.328 L 63.615 12.328 C 63.927 12.328 64.192 12.218 64.412 11.998 C 64.632 11.778 64.741 11.513 64.741 11.202 L 64.741 9.052 Z " fill="rgb(0,0,0)"/></g></g></g><g><g><g><path d=" M 31.983 13.454 L 31.983 12.328 L 29.833 12.328 C 29.522 12.328 29.256 12.437 29.036 12.657 C 28.817 12.877 28.707 13.142 28.707 13.454 L 28.707 15.603 L 31.983 15.603 L 31.983 13.454 Z " fill="rgb(0,0,0)"/></g></g></g><g><g><rect x="31.983" y="12.328" width="3.276" height="3.276" transform="matrix(1,0,0,1,0,0)" fill="rgb(0,0,0)"/></g></g><g><g><rect x="35.259" y="12.328" width="3.276" height="3.276" transform="matrix(1,0,0,1,0,0)" fill="rgb(0,0,0)"/></g></g><g><g><rect x="41.81" y="12.328" width="3.276" height="3.276" transform="matrix(1,0,0,1,0,0)" fill="rgb(0,0,0)"/></g></g><g><g><path d=" M 58.19 14.733 C 58.19 15.116 58.19 15.603 58.19 15.603 C 58.19 15.603 57.076 15.603 56.553 15.603 C 56.145 15.603 54.917 15.603 54.917 15.603 L 54.917 14.782 C 54.917 14.782 54.848 12.637 55.359 12.382 C 56.149 11.988 58.19 13.826 58.19 14.733 Z " fill="rgb(0,0,0)"/></g></g><g><g><g><path d=" M 67.865 15.079 C 68.686 13.544 65.707 11.338 64.894 12.856 C 64.073 14.387 67.055 16.589 67.865 15.079 Z " fill="rgb(0,0,0)"/></g></g></g><g><g><rect x="28.707" y="15.603" width="3.276" height="3.276" transform="matrix(1,0,0,1,0,0)" fill="rgb(0,0,0)"/></g></g><g><g><rect x="35.259" y="15.603" width="3.276" height="3.276" transform="matrix(1,0,0,1,0,0)" fill="rgb(0,0,0)"/></g></g><g><g><rect x="41.81" y="15.603" width="3.276" height="3.276" transform="matrix(1,0,0,1,0,0)" fill="rgb(0,0,0)"/></g></g><g><g><rect x="45.086" y="15.603" width="3.276" height="3.276" transform="matrix(1,0,0,1,0,0)" fill="rgb(0,0,0)"/></g></g><g><g><rect x="48.362" y="15.603" width="3.276" height="3.276" transform="matrix(1,0,0,1,0,0)" fill="rgb(0,0,0)"/></g></g><g><g><rect x="51.638" y="15.603" width="3.276" height="3.276" transform="matrix(1,0,0,1,0,0)" fill="rgb(0,0,0)"/></g></g><g><g><rect x="54.914" y="15.603" width="3.276" height="3.276" transform="matrix(1,0,0,1,0,0)" fill="rgb(0,0,0)"/></g></g><g><g><rect x="58.19" y="15.603" width="3.276" height="3.276" transform="matrix(1,0,0,1,0,0)" fill="rgb(0,0,0)"/></g></g><g><g><g><path d=" M 64.741 16.73 C 64.741 16.418 64.632 16.153 64.412 15.933 C 64.192 15.713 63.927 15.603 63.615 15.603 L 61.466 15.603 L 61.466 18.879 L 64.741 18.879 L 64.741 16.73 Z " fill="rgb(0,0,0)"/></g></g></g><g><g><rect x="28.707" y="18.879" width="3.276" height="3.276" transform="matrix(1,0,0,1,0,0)" fill="rgb(0,0,0)"/></g></g><g><g><rect x="31.983" y="18.879" width="3.276" height="3.276" transform="matrix(1,0,0,1,0,0)" fill="rgb(0,0,0)"/></g></g><g><g><rect x="35.259" y="18.879" width="3.276" height="3.276" transform="matrix(1,0,0,1,0,0)" fill="rgb(0,0,0)"/></g></g><g><g><rect x="38.534" y="18.879" width="3.276" height="3.276" transform="matrix(1,0,0,1,0,0)" fill="rgb(0,0,0)"/></g></g><g><g><rect x="41.81" y="18.879" width="3.276" height="3.276" transform="matrix(1,0,0,1,0,0)" fill="rgb(0,0,0)"/></g></g><g><g><g><path d=" M 48.362 18.879 L 45.086 18.879 L 45.086 22.155 L 47.236 22.155 C 47.547 22.155 47.813 22.045 48.033 21.826 C 48.252 21.606 48.362 21.341 48.362 21.029 L 48.362 18.879 Z " fill="rgb(0,0,0)"/></g></g></g><g><g><rect x="54.914" y="18.879" width="3.276" height="3.276" transform="matrix(1,0,0,1,0,0)" fill="rgb(0,0,0)"/></g></g><g><g><rect x="58.19" y="18.879" width="3.276" height="3.276" transform="matrix(1,0,0,1,0,0)" fill="rgb(0,0,0)"/></g></g><g><g><rect x="61.466" y="18.879" width="3.276" height="3.276" transform="matrix(1,0,0,1,0,0)" fill="rgb(0,0,0)"/></g></g><g><g><path d=" M 65.612 22.155 C 65.229 22.155 64.741 22.155 64.741 22.155 C 64.741 22.155 64.741 21.041 64.741 20.519 C 64.741 20.111 64.741 18.882 64.741 18.882 L 65.563 18.882 C 65.563 18.882 67.676 18.814 67.93 19.324 C 68.324 20.114 66.519 22.155 65.612 22.155 Z " fill="rgb(0,0,0)"/></g></g><g><g><path d=" M 28.707 22.993 C 28.707 22.61 28.707 22.122 28.707 22.122 C 28.707 22.122 29.821 22.122 30.343 22.122 C 30.751 22.122 31.98 22.122 31.98 22.122 L 31.98 22.944 C 31.98 22.944 32.048 25.089 31.538 25.344 C 30.748 25.737 28.707 23.9 28.707 22.993 Z " fill="rgb(0,0,0)"/></g></g><g><g><path d=" M 35.259 22.993 C 35.259 22.61 35.259 22.122 35.259 22.122 C 35.259 22.122 36.373 22.122 36.895 22.122 C 37.303 22.122 38.531 22.122 38.531 22.122 L 38.531 22.944 C 38.531 22.944 38.6 25.089 38.09 25.344 C 37.3 25.737 35.259 23.9 35.259 22.993 Z " fill="rgb(0,0,0)"/></g></g><g><g><rect x="41.81" y="22.155" width="3.276" height="3.276" transform="matrix(1,0,0,1,0,0)" fill="rgb(0,0,0)"/></g></g><g><g><g><path d=" M 51.485 24.906 C 52.307 23.372 49.327 21.166 48.514 22.684 C 47.694 24.215 50.676 26.416 51.485 24.906 Z " fill="rgb(0,0,0)"/></g></g></g><g><g><path d=" M 54.914 22.993 C 54.914 22.61 54.914 22.122 54.914 22.122 C 54.914 22.122 56.028 22.122 56.55 22.122 C 56.958 22.122 58.187 22.122 58.187 22.122 L 58.187 22.944 C 58.187 22.944 58.255 25.089 57.745 25.344 C 56.955 25.737 54.914 23.9 54.914 22.993 Z " fill="rgb(0,0,0)"/></g></g><g><g><path d=" M 61.466 22.993 C 61.466 22.61 61.466 22.122 61.466 22.122 C 61.466 22.122 62.58 22.122 63.102 22.122 C 63.51 22.122 64.738 22.122 64.738 22.122 L 64.738 22.944 C 64.738 22.944 64.807 25.089 64.296 25.344 C 63.507 25.737 61.466 23.9 61.466 22.993 Z " fill="rgb(0,0,0)"/></g></g><g><g><path d=" M 71.293 24.561 C 71.293 24.943 71.293 25.431 71.293 25.431 C 71.293 25.431 70.179 25.431 69.657 25.431 C 69.249 25.431 68.02 25.431 68.02 25.431 L 68.02 24.61 C 68.02 24.61 67.952 22.464 68.462 22.21 C 69.252 21.816 71.293 23.653 71.293 24.561 Z " fill="rgb(0,0,0)"/></g></g><g><g><g><path d=" M 35.106 28.182 C 35.928 26.648 32.948 24.442 32.135 25.959 C 31.315 27.491 34.296 29.692 35.106 28.182 Z " fill="rgb(0,0,0)"/></g></g></g><g><g><path d=" M 41.81 26.269 C 41.81 25.886 41.81 25.398 41.81 25.398 C 41.81 25.398 42.924 25.398 43.447 25.398 C 43.855 25.398 45.083 25.398 45.083 25.398 L 45.083 26.22 C 45.083 26.22 45.152 28.365 44.641 28.62 C 43.851 29.013 41.81 27.176 41.81 26.269 Z " fill="rgb(0,0,0)"/></g></g><g><g><path d=" M 68.017 26.269 C 68.017 25.886 68.017 25.398 68.017 25.398 C 68.017 25.398 69.131 25.398 69.654 25.398 C 70.062 25.398 71.29 25.398 71.29 25.398 L 71.29 26.22 C 71.29 26.22 71.359 28.365 70.848 28.62 C 70.058 29.013 68.017 27.176 68.017 26.269 Z " fill="rgb(0,0,0)"/></g></g><g><g><g><path d=" M 15.451 31.458 C 16.273 29.923 13.293 27.718 12.48 29.235 C 11.659 30.767 14.641 32.968 15.451 31.458 Z " fill="rgb(0,0,0)"/></g></g></g><g><g><g><path d=" M 25.278 31.458 C 26.1 29.923 23.121 27.718 22.307 29.235 C 21.487 30.767 24.469 32.968 25.278 31.458 Z " fill="rgb(0,0,0)"/></g></g></g><g><g><path d=" M 41.81 31.112 C 41.81 31.495 41.81 31.983 41.81 31.983 C 41.81 31.983 40.696 31.983 40.174 31.983 C 39.766 31.983 38.538 31.983 38.538 31.983 L 38.538 31.162 C 38.538 31.162 38.469 29.016 38.979 28.761 C 39.769 28.368 41.81 30.205 41.81 31.112 Z " fill="rgb(0,0,0)"/></g></g><g><g><path d=" M 57.319 28.707 C 57.702 28.707 58.19 28.707 58.19 28.707 C 58.19 28.707 58.19 29.821 58.19 30.343 C 58.19 30.751 58.19 31.98 58.19 31.98 L 57.368 31.98 C 57.368 31.98 55.223 32.048 54.968 31.538 C 54.575 30.748 56.412 28.707 57.319 28.707 Z " fill="rgb(0,0,0)"/></g></g><g><g><path d=" M 59.06 31.983 C 58.677 31.983 58.19 31.983 58.19 31.983 C 58.19 31.983 58.19 30.869 58.19 30.346 C 58.19 29.938 58.19 28.71 58.19 28.71 L 59.011 28.71 C 59.011 28.71 61.124 28.641 61.378 29.152 C 61.772 29.942 59.967 31.983 59.06 31.983 Z " fill="rgb(0,0,0)"/></g></g><g><g><path d=" M 80.25 28.707 C 80.633 28.707 81.121 28.707 81.121 28.707 C 81.121 28.707 81.121 29.821 81.121 30.343 C 81.121 30.751 81.121 31.98 81.121 31.98 L 80.299 31.98 C 80.299 31.98 78.154 32.048 77.899 31.538 C 77.506 30.748 79.343 28.707 80.25 28.707 Z " fill="rgb(0,0,0)"/></g></g><g><g><rect x="81.121" y="28.707" width="3.276" height="3.276" transform="matrix(1,0,0,1,0,0)" fill="rgb(0,0,0)"/></g></g><g><g><path d=" M 85.267 31.983 C 84.884 31.983 84.397 31.983 84.397 31.983 C 84.397 31.983 84.397 30.869 84.397 30.346 C 84.397 29.938 84.397 28.71 84.397 28.71 L 85.218 28.71 C 85.218 28.71 87.331 28.641 87.585 29.152 C 87.979 29.942 86.174 31.983 85.267 31.983 Z " fill="rgb(0,0,0)"/></g></g><g><g><path d=" M 93.354 28.707 C 93.736 28.707 94.224 28.707 94.224 28.707 C 94.224 28.707 94.224 29.821 94.224 30.343 C 94.224 30.751 94.224 31.98 94.224 31.98 L 93.403 31.98 C 93.403 31.98 91.257 32.048 91.003 31.538 C 90.609 30.748 92.447 28.707 93.354 28.707 Z " fill="rgb(0,0,0)"/></g></g><g><g><g><path d=" M 97.5 29.833 C 97.5 29.522 97.39 29.256 97.17 29.036 C 96.951 28.817 96.685 28.707 96.374 28.707 L 94.224 28.707 L 94.224 31.983 L 97.5 31.983 L 97.5 29.833 Z " fill="rgb(0,0,0)"/></g></g></g><g><g><path d=" M 5.776 34.388 C 5.776 34.771 5.776 35.259 5.776 35.259 C 5.776 35.259 4.662 35.259 4.139 35.259 C 3.732 35.259 2.503 35.259 2.503 35.259 L 2.503 34.437 C 2.503 34.437 2.434 32.292 2.945 32.037 C 3.735 31.644 5.776 33.481 5.776 34.388 Z " fill="rgb(0,0,0)"/></g></g><g><g><g><path d=" M 12.175 34.734 C 12.997 33.199 10.017 30.994 9.204 32.511 C 8.383 34.043 11.365 36.244 12.175 34.734 Z " fill="rgb(0,0,0)"/></g></g></g><g><g><g><path d=" M 18.879 33.109 L 18.879 31.983 L 16.73 31.983 C 16.418 31.983 16.153 32.093 15.933 32.312 C 15.713 32.532 15.603 32.797 15.603 33.109 L 15.603 35.259 L 18.879 35.259 L 18.879 33.109 Z " fill="rgb(0,0,0)"/></g></g></g><g><g><path d=" M 19.75 35.259 C 19.367 35.259 18.879 35.259 18.879 35.259 C 18.879 35.259 18.879 34.145 18.879 33.622 C 18.879 33.214 18.879 31.986 18.879 31.986 L 19.701 31.986 C 19.701 31.986 21.813 31.917 22.068 32.428 C 22.462 33.218 20.657 35.259 19.75 35.259 Z " fill="rgb(0,0,0)"/></g></g><g><g><path d=" M 28.707 34.388 C 28.707 34.771 28.707 35.259 28.707 35.259 C 28.707 35.259 27.593 35.259 27.071 35.259 C 26.663 35.259 25.434 35.259 25.434 35.259 L 25.434 34.437 C 25.434 34.437 25.365 32.292 25.876 32.037 C 26.666 31.644 28.707 33.481 28.707 34.388 Z " fill="rgb(0,0,0)"/></g></g><g><g><g><path d=" M 35.259 33.109 L 35.259 31.983 L 33.109 31.983 C 32.797 31.983 32.532 32.093 32.312 32.312 C 32.093 32.532 31.983 32.797 31.983 33.109 L 31.983 35.259 L 35.259 35.259 L 35.259 33.109 Z " fill="rgb(0,0,0)"/></g></g></g><g><g><rect x="35.259" y="31.983" width="3.276" height="3.276" transform="matrix(1,0,0,1,0,0)" fill="rgb(0,0,0)"/></g></g><g><g><rect x="38.534" y="31.983" width="3.276" height="3.276" transform="matrix(1,0,0,1,0,0)" fill="rgb(0,0,0)"/></g></g><g><g><rect x="41.81" y="31.983" width="3.276" height="3.276" transform="matrix(1,0,0,1,0,0)" fill="rgb(0,0,0)"/></g></g><g><g><path d=" M 45.957 35.259 C 45.574 35.259 45.086 35.259 45.086 35.259 C 45.086 35.259 45.086 34.145 45.086 33.622 C 45.086 33.214 45.086 31.986 45.086 31.986 L 45.907 31.986 C 45.907 31.986 48.02 31.917 48.275 32.428 C 48.668 33.218 46.864 35.259 45.957 35.259 Z " fill="rgb(0,0,0)"/></g></g><g><g><path d=" M 67.147 31.983 C 67.529 31.983 68.017 31.983 68.017 31.983 C 68.017 31.983 68.017 33.097 68.017 33.619 C 68.017 34.027 68.017 35.256 68.017 35.256 L 67.196 35.256 C 67.196 35.256 65.05 35.324 64.796 34.814 C 64.402 34.024 66.24 31.983 67.147 31.983 Z " fill="rgb(0,0,0)"/></g></g><g><g><rect x="68.017" y="31.983" width="3.276" height="3.276" transform="matrix(1,0,0,1,0,0)" fill="rgb(0,0,0)"/></g></g><g><g><g><path d=" M 74.569 33.109 C 74.569 32.797 74.459 32.532 74.239 32.312 C 74.02 32.093 73.754 31.983 73.443 31.983 L 71.293 31.983 L 71.293 35.259 L 74.569 35.259 L 74.569 33.109 Z " fill="rgb(0,0,0)"/></g></g></g><g><g><path d=" M 81.121 32.821 C 81.121 32.438 81.121 31.95 81.121 31.95 C 81.121 31.95 82.235 31.95 82.757 31.95 C 83.165 31.95 84.393 31.95 84.393 31.95 L 84.393 32.771 C 84.393 32.771 84.462 34.917 83.952 35.171 C 83.162 35.565 81.121 33.728 81.121 32.821 Z " fill="rgb(0,0,0)"/></g></g><g><g><g><path d=" M 90.796 34.734 C 91.617 33.199 88.638 30.994 87.825 32.511 C 87.004 34.043 89.986 36.244 90.796 34.734 Z " fill="rgb(0,0,0)"/></g></g></g><g><g><path d=" M 94.224 32.821 C 94.224 32.438 94.224 31.95 94.224 31.95 C 94.224 31.95 95.338 31.95 95.861 31.95 C 96.268 31.95 97.497 31.95 97.497 31.95 L 97.497 32.771 C 97.497 32.771 97.566 34.917 97.055 35.171 C 96.265 35.565 94.224 33.728 94.224 32.821 Z " fill="rgb(0,0,0)"/></g></g><g><g><path d=" M 2.5 36.096 C 2.5 35.714 2.5 35.226 2.5 35.226 C 2.5 35.226 3.614 35.226 4.136 35.226 C 4.544 35.226 5.773 35.226 5.773 35.226 L 5.773 36.047 C 5.773 36.047 5.842 38.193 5.331 38.447 C 4.541 38.841 2.5 37.003 2.5 36.096 Z " fill="rgb(0,0,0)"/></g></g><g><g><rect x="15.603" y="35.259" width="3.276" height="3.276" transform="matrix(1,0,0,1,0,0)" fill="rgb(0,0,0)"/></g></g><g><g><path d=" M 24.56 35.259 C 24.943 35.259 25.431 35.259 25.431 35.259 C 25.431 35.259 25.431 36.373 25.431 36.895 C 25.431 37.303 25.431 38.531 25.431 38.531 L 24.61 38.531 C 24.61 38.531 22.464 38.6 22.21 38.09 C 21.816 37.3 23.653 35.259 24.56 35.259 Z " fill="rgb(0,0,0)"/></g></g><g><g><g><path d=" M 28.707 35.259 L 25.431 35.259 L 25.431 38.534 L 27.581 38.534 C 27.892 38.534 28.158 38.425 28.377 38.205 C 28.597 37.985 28.707 37.72 28.707 37.408 L 28.707 35.259 Z " fill="rgb(0,0,0)"/></g></g></g><g><g><rect x="31.983" y="35.259" width="3.276" height="3.276" transform="matrix(1,0,0,1,0,0)" fill="rgb(0,0,0)"/></g></g><g><g><g><path d=" M 71.293 35.259 L 68.017 35.259 L 68.017 37.408 C 68.017 37.72 68.127 37.985 68.347 38.205 C 68.566 38.425 68.832 38.534 69.143 38.534 L 71.293 38.534 L 71.293 35.259 Z " fill="rgb(0,0,0)"/></g></g></g><g><g><rect x="71.293" y="35.259" width="3.276" height="3.276" transform="matrix(1,0,0,1,0,0)" fill="rgb(0,0,0)"/></g></g><g><g><g><path d=" M 77.845 36.385 C 77.845 36.073 77.735 35.808 77.515 35.588 C 77.296 35.369 77.03 35.259 76.719 35.259 L 74.569 35.259 L 74.569 38.534 L 77.845 38.534 L 77.845 36.385 Z " fill="rgb(0,0,0)"/></g></g></g><g><g><g><path d=" M 87.52 38.01 C 88.342 36.475 85.362 34.269 84.549 35.787 C 83.728 37.318 86.71 39.52 87.52 38.01 Z " fill="rgb(0,0,0)"/></g></g></g><g><g><path d=" M 94.224 37.664 C 94.224 38.047 94.224 38.534 94.224 38.534 C 94.224 38.534 93.11 38.534 92.588 38.534 C 92.18 38.534 90.951 38.534 90.951 38.534 L 90.951 37.713 C 90.951 37.713 90.883 35.568 91.393 35.313 C 92.183 34.919 94.224 36.757 94.224 37.664 Z " fill="rgb(0,0,0)"/></g></g><g><g><g><path d=" M 12.328 39.661 L 12.328 38.534 L 10.178 38.534 C 9.866 38.534 9.601 38.644 9.381 38.864 C 9.162 39.084 9.052 39.349 9.052 39.661 L 9.052 41.81 L 12.328 41.81 L 12.328 39.661 Z " fill="rgb(0,0,0)"/></g></g></g><g><g><rect x="12.328" y="38.534" width="3.276" height="3.276" transform="matrix(1,0,0,1,0,0)" fill="rgb(0,0,0)"/></g></g><g><g><rect x="15.603" y="38.534" width="3.276" height="3.276" transform="matrix(1,0,0,1,0,0)" fill="rgb(0,0,0)"/></g></g><g><g><path d=" M 19.75 41.81 C 19.367 41.81 18.879 41.81 18.879 41.81 C 18.879 41.81 18.879 40.696 18.879 40.174 C 18.879 39.766 18.879 38.538 18.879 38.538 L 19.701 38.538 C 19.701 38.538 21.813 38.469 22.068 38.979 C 22.462 39.769 20.657 41.81 19.75 41.81 Z " fill="rgb(0,0,0)"/></g></g><g><g><path d=" M 31.112 38.535 C 31.495 38.535 31.983 38.534 31.983 38.534 C 31.983 38.534 31.983 39.649 31.983 40.171 C 31.983 40.579 31.983 41.807 31.983 41.807 L 31.162 41.807 C 31.162 41.807 29.016 41.876 28.761 41.365 C 28.368 40.576 30.205 38.535 31.112 38.535 Z " fill="rgb(0,0,0)"/></g></g><g><g><rect x="31.983" y="38.534" width="3.276" height="3.276" transform="matrix(1,0,0,1,0,0)" fill="rgb(0,0,0)"/></g></g><g><g><rect x="74.569" y="38.534" width="3.276" height="3.276" transform="matrix(1,0,0,1,0,0)" fill="rgb(0,0,0)"/></g></g><g><g><rect x="77.845" y="38.534" width="3.276" height="3.276" transform="matrix(1,0,0,1,0,0)" fill="rgb(0,0,0)"/></g></g><g><g><path d=" M 81.991 41.81 C 81.608 41.81 81.121 41.81 81.121 41.81 C 81.121 41.81 81.121 40.696 81.121 40.174 C 81.121 39.766 81.121 38.538 81.121 38.538 L 81.942 38.538 C 81.942 38.538 84.055 38.469 84.309 38.979 C 84.703 39.769 82.898 41.81 81.991 41.81 Z " fill="rgb(0,0,0)"/></g></g><g><g><path d=" M 90.078 38.535 C 90.46 38.535 90.948 38.534 90.948 38.534 C 90.948 38.534 90.948 39.649 90.948 40.171 C 90.948 40.579 90.948 41.807 90.948 41.807 L 90.127 41.807 C 90.127 41.807 87.981 41.876 87.727 41.365 C 87.333 40.576 89.171 38.535 90.078 38.535 Z " fill="rgb(0,0,0)"/></g></g><g><g><g><path d=" M 94.224 38.534 L 90.948 38.534 L 90.948 41.81 L 93.098 41.81 C 93.409 41.81 93.675 41.7 93.895 41.481 C 94.114 41.261 94.224 40.996 94.224 40.684 L 94.224 38.534 Z " fill="rgb(0,0,0)"/></g></g></g><g><g><rect x="9.052" y="41.81" width="3.276" height="3.276" transform="matrix(1,0,0,1,0,0)" fill="rgb(0,0,0)"/></g></g><g><g><path d=" M 24.56 41.81 C 24.943 41.81 25.431 41.81 25.431 41.81 C 25.431 41.81 25.431 42.924 25.431 43.447 C 25.431 43.855 25.431 45.083 25.431 45.083 L 24.61 45.083 C 24.61 45.083 22.464 45.152 22.21 44.641 C 21.816 43.851 23.653 41.81 24.56 41.81 Z " fill="rgb(0,0,0)"/></g></g><g><g><g><path d=" M 28.707 42.936 C 28.707 42.625 28.597 42.36 28.377 42.14 C 28.158 41.92 27.892 41.81 27.581 41.81 L 25.431 41.81 L 25.431 45.086 L 28.707 45.086 L 28.707 42.936 Z " fill="rgb(0,0,0)"/></g></g></g><g><g><rect x="31.983" y="41.81" width="3.276" height="3.276" transform="matrix(1,0,0,1,0,0)" fill="rgb(0,0,0)"/></g></g><g><g><path d=" M 68.017 44.216 C 68.017 44.598 68.017 45.086 68.017 45.086 C 68.017 45.086 66.903 45.086 66.381 45.086 C 65.973 45.086 64.744 45.086 64.744 45.086 L 64.744 44.265 C 64.744 44.265 64.676 42.119 65.186 41.865 C 65.976 41.471 68.017 43.309 68.017 44.216 Z " fill="rgb(0,0,0)"/></g></g><g><g><path d=" M 74.569 42.648 C 74.569 42.265 74.569 41.778 74.569 41.778 C 74.569 41.778 75.683 41.778 76.205 41.778 C 76.613 41.778 77.842 41.778 77.842 41.778 L 77.842 42.599 C 77.842 42.599 77.911 44.745 77.4 44.999 C 76.61 45.393 74.569 43.555 74.569 42.648 Z " fill="rgb(0,0,0)"/></g></g><g><g><g><path d=" M 5.623 47.837 C 6.445 46.303 3.465 44.097 2.652 45.615 C 1.832 47.146 4.814 49.347 5.623 47.837 Z " fill="rgb(0,0,0)"/></g></g></g><g><g><g><path d=" M 12.328 45.086 L 9.052 45.086 L 9.052 47.236 C 9.052 47.547 9.162 47.813 9.381 48.033 C 9.601 48.252 9.866 48.362 10.178 48.362 L 12.328 48.362 L 12.328 45.086 Z " fill="rgb(0,0,0)"/></g></g></g><g><g><path d=" M 13.198 48.362 C 12.815 48.362 12.328 48.362 12.328 48.362 C 12.328 48.362 12.328 47.248 12.328 46.726 C 12.328 46.318 12.328 45.089 12.328 45.089 L 13.149 45.089 C 13.149 45.089 15.262 45.02 15.516 45.531 C 15.91 46.321 14.105 48.362 13.198 48.362 Z " fill="rgb(0,0,0)"/></g></g><g><g><path d=" M 22.155 47.492 C 22.155 47.874 22.155 48.362 22.155 48.362 C 22.155 48.362 21.041 48.362 20.519 48.362 C 20.111 48.362 18.882 48.362 18.882 48.362 L 18.882 47.541 C 18.882 47.541 18.814 45.395 19.324 45.141 C 20.114 44.747 22.155 46.585 22.155 47.492 Z " fill="rgb(0,0,0)"/></g></g><g><g><g><path d=" M 28.707 45.086 L 25.431 45.086 L 25.431 47.236 C 25.431 47.547 25.541 47.813 25.761 48.033 C 25.98 48.252 26.246 48.362 26.557 48.362 L 28.707 48.362 L 28.707 45.086 Z " fill="rgb(0,0,0)"/></g></g></g><g><g><rect x="28.707" y="45.086" width="3.276" height="3.276" transform="matrix(1,0,0,1,0,0)" fill="rgb(0,0,0)"/></g></g><g><g><g><path d=" M 35.259 45.086 L 31.983 45.086 L 31.983 48.362 L 34.133 48.362 C 34.444 48.362 34.709 48.252 34.929 48.033 C 35.149 47.813 35.259 47.547 35.259 47.236 L 35.259 45.086 Z " fill="rgb(0,0,0)"/></g></g></g><g><g><g><path d=" M 68.017 45.086 L 64.741 45.086 L 64.741 47.236 C 64.741 47.547 64.851 47.813 65.071 48.033 C 65.291 48.252 65.556 48.362 65.867 48.362 L 68.017 48.362 L 68.017 45.086 Z " fill="rgb(0,0,0)"/></g></g></g><g><g><rect x="68.017" y="45.086" width="3.276" height="3.276" transform="matrix(1,0,0,1,0,0)" fill="rgb(0,0,0)"/></g></g><g><g><path d=" M 72.164 48.362 C 71.781 48.362 71.293 48.362 71.293 48.362 C 71.293 48.362 71.293 47.248 71.293 46.726 C 71.293 46.318 71.293 45.089 71.293 45.089 L 72.114 45.089 C 72.114 45.089 74.227 45.02 74.482 45.531 C 74.875 46.321 73.071 48.362 72.164 48.362 Z " fill="rgb(0,0,0)"/></g></g><g><g><path d=" M 81.121 47.492 C 81.121 47.874 81.121 48.362 81.121 48.362 C 81.121 48.362 80.007 48.362 79.484 48.362 C 79.076 48.362 77.848 48.362 77.848 48.362 L 77.848 47.541 C 77.848 47.541 77.779 45.395 78.29 45.141 C 79.08 44.747 81.121 46.585 81.121 47.492 Z " fill="rgb(0,0,0)"/></g></g><g><g><g><path d=" M 87.52 47.837 C 88.342 46.303 85.362 44.097 84.549 45.615 C 83.728 47.146 86.71 49.347 87.52 47.837 Z " fill="rgb(0,0,0)"/></g></g></g><g><g><g><path d=" M 94.071 47.837 C 94.893 46.303 91.914 44.097 91.1 45.615 C 90.28 47.146 93.262 49.347 94.071 47.837 Z " fill="rgb(0,0,0)"/></g></g></g><g><g><g><path d=" M 22.155 48.362 L 18.879 48.362 L 18.879 50.512 C 18.879 50.823 18.989 51.089 19.209 51.308 C 19.429 51.528 19.694 51.638 20.005 51.638 L 22.155 51.638 L 22.155 48.362 Z " fill="rgb(0,0,0)"/></g></g></g><g><g><path d=" M 23.026 51.638 C 22.643 51.638 22.155 51.638 22.155 51.638 C 22.155 51.638 22.155 50.524 22.155 50.002 C 22.155 49.594 22.155 48.365 22.155 48.365 L 22.976 48.365 C 22.976 48.365 25.089 48.296 25.344 48.807 C 25.737 49.597 23.933 51.638 23.026 51.638 Z " fill="rgb(0,0,0)"/></g></g><g><g><path d=" M 28.707 49.2 C 28.707 48.817 28.707 48.329 28.707 48.329 C 28.707 48.329 29.821 48.329 30.343 48.329 C 30.751 48.329 31.98 48.329 31.98 48.329 L 31.98 49.151 C 31.98 49.151 32.048 51.296 31.538 51.551 C 30.748 51.944 28.707 50.107 28.707 49.2 Z " fill="rgb(0,0,0)"/></g></g><g><g><path d=" M 68.017 49.2 C 68.017 48.817 68.017 48.329 68.017 48.329 C 68.017 48.329 69.131 48.329 69.654 48.329 C 70.062 48.329 71.29 48.329 71.29 48.329 L 71.29 49.151 C 71.29 49.151 71.359 51.296 70.848 51.551 C 70.058 51.944 68.017 50.107 68.017 49.2 Z " fill="rgb(0,0,0)"/></g></g><g><g><path d=" M 76.974 48.362 C 77.357 48.362 77.845 48.362 77.845 48.362 C 77.845 48.362 77.845 49.476 77.845 49.998 C 77.845 50.406 77.845 51.635 77.845 51.635 L 77.024 51.635 C 77.024 51.635 74.878 51.704 74.623 51.193 C 74.23 50.403 76.067 48.362 76.974 48.362 Z " fill="rgb(0,0,0)"/></g></g><g><g><rect x="77.845" y="48.362" width="3.276" height="3.276" transform="matrix(1,0,0,1,0,0)" fill="rgb(0,0,0)"/></g></g><g><g><path d=" M 97.5 50.767 C 97.5 51.15 97.5 51.638 97.5 51.638 C 97.5 51.638 96.386 51.638 95.864 51.638 C 95.456 51.638 94.227 51.638 94.227 51.638 L 94.227 50.817 C 94.227 50.817 94.158 48.671 94.669 48.417 C 95.459 48.023 97.5 49.86 97.5 50.767 Z " fill="rgb(0,0,0)"/></g></g><g><g><g><path d=" M 5.776 52.764 L 5.776 51.638 L 3.626 51.638 C 3.315 51.638 3.049 51.748 2.83 51.967 C 2.61 52.187 2.5 52.453 2.5 52.764 L 2.5 54.914 L 5.776 54.914 L 5.776 52.764 Z " fill="rgb(0,0,0)"/></g></g></g><g><g><rect x="5.776" y="51.638" width="3.276" height="3.276" transform="matrix(1,0,0,1,0,0)" fill="rgb(0,0,0)"/></g></g><g><g><rect x="9.052" y="51.638" width="3.276" height="3.276" transform="matrix(1,0,0,1,0,0)" fill="rgb(0,0,0)"/></g></g><g><g><rect x="12.328" y="51.638" width="3.276" height="3.276" transform="matrix(1,0,0,1,0,0)" fill="rgb(0,0,0)"/></g></g><g><g><g><path d=" M 18.879 52.764 C 18.879 52.453 18.769 52.187 18.55 51.967 C 18.33 51.748 18.065 51.638 17.753 51.638 L 15.603 51.638 L 15.603 54.914 L 18.879 54.914 L 18.879 52.764 Z " fill="rgb(0,0,0)"/></g></g></g><g><g><path d=" M 35.259 54.043 C 35.259 54.426 35.259 54.914 35.259 54.914 C 35.259 54.914 34.145 54.914 33.622 54.914 C 33.214 54.914 31.986 54.914 31.986 54.914 L 31.986 54.093 C 31.986 54.093 31.917 51.947 32.428 51.692 C 33.218 51.299 35.259 53.136 35.259 54.043 Z " fill="rgb(0,0,0)"/></g></g><g><g><path d=" M 68.017 54.043 C 68.017 54.426 68.017 54.914 68.017 54.914 C 68.017 54.914 66.903 54.914 66.381 54.914 C 65.973 54.914 64.744 54.914 64.744 54.914 L 64.744 54.093 C 64.744 54.093 64.676 51.947 65.186 51.692 C 65.976 51.299 68.017 53.136 68.017 54.043 Z " fill="rgb(0,0,0)"/></g></g><g><g><g><path d=" M 81.121 51.638 L 77.845 51.638 L 77.845 53.788 C 77.845 54.099 77.955 54.365 78.174 54.584 C 78.394 54.804 78.66 54.914 78.971 54.914 L 81.121 54.914 L 81.121 51.638 Z " fill="rgb(0,0,0)"/></g></g></g><g><g><g><path d=" M 84.397 52.764 C 84.397 52.453 84.287 52.187 84.067 51.967 C 83.847 51.748 83.582 51.638 83.27 51.638 L 81.121 51.638 L 81.121 54.914 L 84.397 54.914 L 84.397 52.764 Z " fill="rgb(0,0,0)"/></g></g></g><g><g><path d=" M 93.354 51.638 C 93.736 51.638 94.224 51.638 94.224 51.638 C 94.224 51.638 94.224 52.752 94.224 53.274 C 94.224 53.682 94.224 54.911 94.224 54.911 L 93.403 54.911 C 93.403 54.911 91.257 54.979 91.003 54.469 C 90.609 53.679 92.447 51.638 93.354 51.638 Z " fill="rgb(0,0,0)"/></g></g><g><g><g><path d=" M 97.5 51.638 L 94.224 51.638 L 94.224 54.914 L 96.374 54.914 C 96.685 54.914 96.951 54.804 97.17 54.584 C 97.39 54.365 97.5 54.099 97.5 53.788 L 97.5 51.638 Z " fill="rgb(0,0,0)"/></g></g></g><g><g><path d=" M 2.5 55.752 C 2.5 55.369 2.5 54.881 2.5 54.881 C 2.5 54.881 3.614 54.881 4.136 54.881 C 4.544 54.881 5.773 54.881 5.773 54.881 L 5.773 55.702 C 5.773 55.702 5.842 57.848 5.331 58.102 C 4.541 58.496 2.5 56.659 2.5 55.752 Z " fill="rgb(0,0,0)"/></g></g><g><g><g><path d=" M 15.603 54.914 L 12.328 54.914 L 12.328 57.064 C 12.328 57.375 12.437 57.64 12.657 57.86 C 12.877 58.08 13.142 58.19 13.454 58.19 L 15.603 58.19 L 15.603 54.914 Z " fill="rgb(0,0,0)"/></g></g></g><g><g><rect x="15.603" y="54.914" width="3.276" height="3.276" transform="matrix(1,0,0,1,0,0)" fill="rgb(0,0,0)"/></g></g><g><g><rect x="18.879" y="54.914" width="3.276" height="3.276" transform="matrix(1,0,0,1,0,0)" fill="rgb(0,0,0)"/></g></g><g><g><rect x="22.155" y="54.914" width="3.276" height="3.276" transform="matrix(1,0,0,1,0,0)" fill="rgb(0,0,0)"/></g></g><g><g><rect x="25.431" y="54.914" width="3.276" height="3.276" transform="matrix(1,0,0,1,0,0)" fill="rgb(0,0,0)"/></g></g><g><g><rect x="28.707" y="54.914" width="3.276" height="3.276" transform="matrix(1,0,0,1,0,0)" fill="rgb(0,0,0)"/></g></g><g><g><g><path d=" M 35.259 54.914 L 31.983 54.914 L 31.983 58.19 L 34.133 58.19 C 34.444 58.19 34.709 58.08 34.929 57.86 C 35.149 57.64 35.259 57.375 35.259 57.064 L 35.259 54.914 Z " fill="rgb(0,0,0)"/></g></g></g><g><g><rect x="64.741" y="54.914" width="3.276" height="3.276" transform="matrix(1,0,0,1,0,0)" fill="rgb(0,0,0)"/></g></g><g><g><path d=" M 81.121 55.752 C 81.121 55.369 81.121 54.881 81.121 54.881 C 81.121 54.881 82.235 54.881 82.757 54.881 C 83.165 54.881 84.393 54.881 84.393 54.881 L 84.393 55.702 C 84.393 55.702 84.462 57.848 83.952 58.102 C 83.162 58.496 81.121 56.659 81.121 55.752 Z " fill="rgb(0,0,0)"/></g></g><g><g><path d=" M 8.181 58.19 C 8.564 58.19 9.052 58.19 9.052 58.19 C 9.052 58.19 9.052 59.304 9.052 59.826 C 9.052 60.234 9.052 61.462 9.052 61.462 L 8.23 61.462 C 8.23 61.462 6.085 61.531 5.83 61.021 C 5.437 60.231 7.274 58.19 8.181 58.19 Z " fill="rgb(0,0,0)"/></g></g><g><g><path d=" M 9.922 61.465 C 9.54 61.465 9.052 61.466 9.052 61.466 C 9.052 61.466 9.052 60.351 9.052 59.829 C 9.052 59.421 9.052 58.193 9.052 58.193 L 9.873 58.193 C 9.873 58.193 11.986 58.124 12.24 58.635 C 12.634 59.425 10.829 61.465 9.922 61.465 Z " fill="rgb(0,0,0)"/></g></g><g><g><rect x="18.879" y="58.19" width="3.276" height="3.276" transform="matrix(1,0,0,1,0,0)" fill="rgb(0,0,0)"/></g></g><g><g><rect x="28.707" y="58.19" width="3.276" height="3.276" transform="matrix(1,0,0,1,0,0)" fill="rgb(0,0,0)"/></g></g><g><g><g><path d=" M 68.017 58.19 L 64.741 58.19 L 64.741 60.339 C 64.741 60.651 64.851 60.916 65.071 61.136 C 65.291 61.356 65.556 61.466 65.867 61.466 L 68.017 61.466 L 68.017 58.19 Z " fill="rgb(0,0,0)"/></g></g></g><g><g><path d=" M 68.888 61.465 C 68.505 61.465 68.017 61.466 68.017 61.466 C 68.017 61.466 68.017 60.351 68.017 59.829 C 68.017 59.421 68.017 58.193 68.017 58.193 L 68.838 58.193 C 68.838 58.193 70.951 58.124 71.206 58.635 C 71.6 59.425 69.795 61.465 68.888 61.465 Z " fill="rgb(0,0,0)"/></g></g><g><g><g><path d=" M 87.672 59.316 L 87.672 58.19 L 85.523 58.19 C 85.211 58.19 84.946 58.3 84.726 58.519 C 84.506 58.739 84.397 59.004 84.397 59.316 L 84.397 61.466 L 87.672 61.466 L 87.672 59.316 Z " fill="rgb(0,0,0)"/></g></g></g><g><g><rect x="87.672" y="58.19" width="3.276" height="3.276" transform="matrix(1,0,0,1,0,0)" fill="rgb(0,0,0)"/></g></g><g><g><rect x="90.948" y="58.19" width="3.276" height="3.276" transform="matrix(1,0,0,1,0,0)" fill="rgb(0,0,0)"/></g></g><g><g><g><path d=" M 97.5 59.316 C 97.5 59.004 97.39 58.739 97.17 58.519 C 96.951 58.3 96.685 58.19 96.374 58.19 L 94.224 58.19 L 94.224 61.466 L 97.5 61.466 L 97.5 59.316 Z " fill="rgb(0,0,0)"/></g></g></g><g><g><g><path d=" M 5.623 64.216 C 6.445 62.682 3.465 60.476 2.652 61.994 C 1.832 63.525 4.814 65.727 5.623 64.216 Z " fill="rgb(0,0,0)"/></g></g></g><g><g><g><path d=" M 22.155 61.466 L 18.879 61.466 L 18.879 63.615 C 18.879 63.927 18.989 64.192 19.209 64.412 C 19.429 64.632 19.694 64.741 20.005 64.741 L 22.155 64.741 L 22.155 61.466 Z " fill="rgb(0,0,0)"/></g></g></g><g><g><path d=" M 23.026 64.741 C 22.643 64.741 22.155 64.741 22.155 64.741 C 22.155 64.741 22.155 63.627 22.155 63.105 C 22.155 62.697 22.155 61.469 22.155 61.469 L 22.976 61.469 C 22.976 61.469 25.089 61.4 25.344 61.91 C 25.737 62.7 23.933 64.741 23.026 64.741 Z " fill="rgb(0,0,0)"/></g></g><g><g><g><path d=" M 31.983 61.466 L 28.707 61.466 L 28.707 63.615 C 28.707 63.927 28.817 64.192 29.036 64.412 C 29.256 64.632 29.522 64.741 29.833 64.741 L 31.983 64.741 L 31.983 61.466 Z " fill="rgb(0,0,0)"/></g></g></g><g><g><path d=" M 32.853 64.741 C 32.471 64.741 31.983 64.741 31.983 64.741 C 31.983 64.741 31.983 63.627 31.983 63.105 C 31.983 62.697 31.983 61.469 31.983 61.469 L 32.804 61.469 C 32.804 61.469 34.917 61.4 35.171 61.91 C 35.565 62.7 33.76 64.741 32.853 64.741 Z " fill="rgb(0,0,0)"/></g></g><g><g><g><path d=" M 74.416 64.216 C 75.238 62.682 72.258 60.476 71.445 61.994 C 70.625 63.525 73.607 65.727 74.416 64.216 Z " fill="rgb(0,0,0)"/></g></g></g><g><g><path d=" M 80.25 61.466 C 80.633 61.466 81.121 61.466 81.121 61.466 C 81.121 61.466 81.121 62.58 81.121 63.102 C 81.121 63.51 81.121 64.738 81.121 64.738 L 80.299 64.738 C 80.299 64.738 78.154 64.807 77.899 64.296 C 77.506 63.507 79.343 61.466 80.25 61.466 Z " fill="rgb(0,0,0)"/></g></g><g><g><rect x="81.121" y="61.466" width="3.276" height="3.276" transform="matrix(1,0,0,1,0,0)" fill="rgb(0,0,0)"/></g></g><g><g><rect x="84.397" y="61.466" width="3.276" height="3.276" transform="matrix(1,0,0,1,0,0)" fill="rgb(0,0,0)"/></g></g><g><g><g><path d=" M 94.224 61.466 L 90.948 61.466 L 90.948 63.615 C 90.948 63.927 91.058 64.192 91.278 64.412 C 91.497 64.632 91.763 64.741 92.074 64.741 L 94.224 64.741 L 94.224 61.466 Z " fill="rgb(0,0,0)"/></g></g></g><g><g><rect x="94.224" y="61.466" width="3.276" height="3.276" transform="matrix(1,0,0,1,0,0)" fill="rgb(0,0,0)"/></g></g><g><g><path d=" M 28.707 67.147 C 28.707 67.529 28.707 68.017 28.707 68.017 C 28.707 68.017 27.593 68.017 27.071 68.017 C 26.663 68.017 25.434 68.017 25.434 68.017 L 25.434 67.196 C 25.434 67.196 25.365 65.05 25.876 64.796 C 26.666 64.402 28.707 66.24 28.707 67.147 Z " fill="rgb(0,0,0)"/></g></g><g><g><path d=" M 37.664 64.741 C 38.047 64.741 38.534 64.741 38.534 64.741 C 38.534 64.741 38.534 65.855 38.534 66.378 C 38.534 66.786 38.534 68.014 38.534 68.014 L 37.713 68.014 C 37.713 68.014 35.568 68.083 35.313 67.572 C 34.92 66.782 36.757 64.741 37.664 64.741 Z " fill="rgb(0,0,0)"/></g></g><g><g><rect x="38.534" y="64.741" width="3.276" height="3.276" transform="matrix(1,0,0,1,0,0)" fill="rgb(0,0,0)"/></g></g><g><g><g><path d=" M 45.086 65.867 C 45.086 65.556 44.976 65.291 44.757 65.071 C 44.537 64.851 44.272 64.741 43.96 64.741 L 41.81 64.741 L 41.81 68.017 L 45.086 68.017 L 45.086 65.867 Z " fill="rgb(0,0,0)"/></g></g></g><g><g><g><path d=" M 51.485 67.492 C 52.307 65.958 49.327 63.752 48.514 65.27 C 47.694 66.801 50.676 69.002 51.485 67.492 Z " fill="rgb(0,0,0)"/></g></g></g><g><g><path d=" M 60.595 64.741 C 60.978 64.741 61.466 64.741 61.466 64.741 C 61.466 64.741 61.466 65.855 61.465 66.378 C 61.466 66.786 61.465 68.014 61.465 68.014 L 60.644 68.014 C 60.644 68.014 58.499 68.083 58.244 67.572 C 57.851 66.782 59.688 64.741 60.595 64.741 Z " fill="rgb(0,0,0)"/></g></g><g><g><g><path d=" M 64.741 65.867 C 64.741 65.556 64.632 65.291 64.412 65.071 C 64.192 64.851 63.927 64.741 63.615 64.741 L 61.466 64.741 L 61.466 68.017 L 64.741 68.017 L 64.741 65.867 Z " fill="rgb(0,0,0)"/></g></g></g><g><g><rect x="81.121" y="64.741" width="3.276" height="3.276" transform="matrix(1,0,0,1,0,0)" fill="rgb(0,0,0)"/></g></g><g><g><g><path d=" M 87.672 64.741 L 84.397 64.741 L 84.397 68.017 L 86.546 68.017 C 86.858 68.017 87.123 67.907 87.343 67.688 C 87.563 67.468 87.672 67.203 87.672 66.891 L 87.672 64.741 Z " fill="rgb(0,0,0)"/></g></g></g><g><g><rect x="94.224" y="64.741" width="3.276" height="3.276" transform="matrix(1,0,0,1,0,0)" fill="rgb(0,0,0)"/></g></g><g><g><g><path d=" M 5.623 70.768 C 6.445 69.234 3.465 67.028 2.652 68.546 C 1.832 70.077 4.814 72.278 5.623 70.768 Z " fill="rgb(0,0,0)"/></g></g></g><g><g><g><path d=" M 12.175 70.768 C 12.997 69.234 10.017 67.028 9.204 68.546 C 8.383 70.077 11.365 72.278 12.175 70.768 Z " fill="rgb(0,0,0)"/></g></g></g><g><g><path d=" M 18.009 68.017 C 18.392 68.017 18.879 68.017 18.879 68.017 C 18.879 68.017 18.879 69.131 18.879 69.654 C 18.879 70.062 18.879 71.29 18.879 71.29 L 18.058 71.29 C 18.058 71.29 15.912 71.359 15.658 70.848 C 15.264 70.058 17.102 68.017 18.009 68.017 Z " fill="rgb(0,0,0)"/></g></g><g><g><rect x="18.879" y="68.017" width="3.276" height="3.276" transform="matrix(1,0,0,1,0,0)" fill="rgb(0,0,0)"/></g></g><g><g><rect x="22.155" y="68.017" width="3.276" height="3.276" transform="matrix(1,0,0,1,0,0)" fill="rgb(0,0,0)"/></g></g><g><g><rect x="25.431" y="68.017" width="3.276" height="3.276" transform="matrix(1,0,0,1,0,0)" fill="rgb(0,0,0)"/></g></g><g><g><rect x="28.707" y="68.017" width="3.276" height="3.276" transform="matrix(1,0,0,1,0,0)" fill="rgb(0,0,0)"/></g></g><g><g><g><path d=" M 35.259 69.143 C 35.259 68.832 35.149 68.566 34.929 68.347 C 34.709 68.127 34.444 68.017 34.133 68.017 L 31.983 68.017 L 31.983 71.293 L 35.259 71.293 L 35.259 69.143 Z " fill="rgb(0,0,0)"/></g></g></g><g><g><rect x="41.81" y="68.017" width="3.276" height="3.276" transform="matrix(1,0,0,1,0,0)" fill="rgb(0,0,0)"/></g></g><g><g><g><path d=" M 48.362 69.143 C 48.362 68.832 48.252 68.566 48.033 68.347 C 47.813 68.127 47.547 68.017 47.236 68.017 L 45.086 68.017 L 45.086 71.293 L 48.362 71.293 L 48.362 69.143 Z " fill="rgb(0,0,0)"/></g></g></g><g><g><path d=" M 58.19 70.423 C 58.19 70.805 58.19 71.293 58.19 71.293 C 58.19 71.293 57.076 71.293 56.553 71.293 C 56.145 71.293 54.917 71.293 54.917 71.293 L 54.917 70.472 C 54.917 70.472 54.848 68.326 55.359 68.072 C 56.149 67.678 58.19 69.516 58.19 70.423 Z " fill="rgb(0,0,0)"/></g></g><g><g><rect x="61.466" y="68.017" width="3.276" height="3.276" transform="matrix(1,0,0,1,0,0)" fill="rgb(0,0,0)"/></g></g><g><g><g><path d=" M 71.293 69.143 L 71.293 68.017 L 69.143 68.017 C 68.832 68.017 68.566 68.127 68.347 68.347 C 68.127 68.566 68.017 68.832 68.017 69.143 L 68.017 71.293 L 71.293 71.293 L 71.293 69.143 Z " fill="rgb(0,0,0)"/></g></g></g><g><g><rect x="71.293" y="68.017" width="3.276" height="3.276" transform="matrix(1,0,0,1,0,0)" fill="rgb(0,0,0)"/></g></g><g><g><rect x="74.569" y="68.017" width="3.276" height="3.276" transform="matrix(1,0,0,1,0,0)" fill="rgb(0,0,0)"/></g></g><g><g><rect x="77.845" y="68.017" width="3.276" height="3.276" transform="matrix(1,0,0,1,0,0)" fill="rgb(0,0,0)"/></g></g><g><g><rect x="81.121" y="68.017" width="3.276" height="3.276" transform="matrix(1,0,0,1,0,0)" fill="rgb(0,0,0)"/></g></g><g><g><g><path d=" M 90.796 70.768 C 91.617 69.234 88.638 67.028 87.825 68.546 C 87.004 70.077 89.986 72.278 90.796 70.768 Z " fill="rgb(0,0,0)"/></g></g></g><g><g><rect x="94.224" y="68.017" width="3.276" height="3.276" transform="matrix(1,0,0,1,0,0)" fill="rgb(0,0,0)"/></g></g><g><g><g><path d=" M 31.983 71.293 L 28.707 71.293 L 28.707 73.443 C 28.707 73.754 28.817 74.02 29.036 74.239 C 29.256 74.459 29.522 74.569 29.833 74.569 L 31.983 74.569 L 31.983 71.293 Z " fill="rgb(0,0,0)"/></g></g></g><g><g><rect x="31.983" y="71.293" width="3.276" height="3.276" transform="matrix(1,0,0,1,0,0)" fill="rgb(0,0,0)"/></g></g><g><g><rect x="35.259" y="71.293" width="3.276" height="3.276" transform="matrix(1,0,0,1,0,0)" fill="rgb(0,0,0)"/></g></g><g><g><rect x="38.534" y="71.293" width="3.276" height="3.276" transform="matrix(1,0,0,1,0,0)" fill="rgb(0,0,0)"/></g></g><g><g><rect x="41.81" y="71.293" width="3.276" height="3.276" transform="matrix(1,0,0,1,0,0)" fill="rgb(0,0,0)"/></g></g><g><g><rect x="45.086" y="71.293" width="3.276" height="3.276" transform="matrix(1,0,0,1,0,0)" fill="rgb(0,0,0)"/></g></g><g><g><rect x="48.362" y="71.293" width="3.276" height="3.276" transform="matrix(1,0,0,1,0,0)" fill="rgb(0,0,0)"/></g></g><g><g><rect x="51.638" y="71.293" width="3.276" height="3.276" transform="matrix(1,0,0,1,0,0)" fill="rgb(0,0,0)"/></g></g><g><g><rect x="54.914" y="71.293" width="3.276" height="3.276" transform="matrix(1,0,0,1,0,0)" fill="rgb(0,0,0)"/></g></g><g><g><rect x="58.19" y="71.293" width="3.276" height="3.276" transform="matrix(1,0,0,1,0,0)" fill="rgb(0,0,0)"/></g></g><g><g><rect x="61.466" y="71.293" width="3.276" height="3.276" transform="matrix(1,0,0,1,0,0)" fill="rgb(0,0,0)"/></g></g><g><g><rect x="64.741" y="71.293" width="3.276" height="3.276" transform="matrix(1,0,0,1,0,0)" fill="rgb(0,0,0)"/></g></g><g><g><rect x="68.017" y="71.293" width="3.276" height="3.276" transform="matrix(1,0,0,1,0,0)" fill="rgb(0,0,0)"/></g></g><g><g><rect x="81.121" y="71.293" width="3.276" height="3.276" transform="matrix(1,0,0,1,0,0)" fill="rgb(0,0,0)"/></g></g><g><g><path d=" M 94.224 72.131 C 94.224 71.748 94.224 71.26 94.224 71.26 C 94.224 71.26 95.338 71.26 95.861 71.26 C 96.268 71.26 97.497 71.26 97.497 71.26 L 97.497 72.082 C 97.497 72.082 97.566 74.227 97.055 74.482 C 96.265 74.875 94.224 73.038 94.224 72.131 Z " fill="rgb(0,0,0)"/></g></g><g><g><g><path d=" M 35.259 74.569 L 31.983 74.569 L 31.983 76.719 C 31.983 77.03 32.093 77.296 32.312 77.515 C 32.532 77.735 32.797 77.845 33.109 77.845 L 35.259 77.845 L 35.259 74.569 Z " fill="rgb(0,0,0)"/></g></g></g><g><g><rect x="35.259" y="74.569" width="3.276" height="3.276" transform="matrix(1,0,0,1,0,0)" fill="rgb(0,0,0)"/></g></g><g><g><rect x="38.534" y="74.569" width="3.276" height="3.276" transform="matrix(1,0,0,1,0,0)" fill="rgb(0,0,0)"/></g></g><g><g><g><path d=" M 45.086 74.569 L 41.81 74.569 L 41.81 77.845 L 43.96 77.845 C 44.272 77.845 44.537 77.735 44.757 77.515 C 44.976 77.296 45.086 77.03 45.086 76.719 L 45.086 74.569 Z " fill="rgb(0,0,0)"/></g></g></g><g><g><path d=" M 54.914 75.407 C 54.914 75.024 54.914 74.536 54.914 74.536 C 54.914 74.536 56.028 74.536 56.55 74.536 C 56.958 74.536 58.187 74.536 58.187 74.536 L 58.187 75.357 C 58.187 75.357 58.255 77.503 57.745 77.758 C 56.955 78.151 54.914 76.314 54.914 75.407 Z " fill="rgb(0,0,0)"/></g></g><g><g><rect x="68.017" y="74.569" width="3.276" height="3.276" transform="matrix(1,0,0,1,0,0)" fill="rgb(0,0,0)"/></g></g><g><g><g><path d=" M 77.692 77.32 C 78.514 75.785 75.534 73.58 74.721 75.097 C 73.901 76.629 76.883 78.83 77.692 77.32 Z " fill="rgb(0,0,0)"/></g></g></g><g><g><rect x="81.121" y="74.569" width="3.276" height="3.276" transform="matrix(1,0,0,1,0,0)" fill="rgb(0,0,0)"/></g></g><g><g><rect x="84.397" y="74.569" width="3.276" height="3.276" transform="matrix(1,0,0,1,0,0)" fill="rgb(0,0,0)"/></g></g><g><g><rect x="87.672" y="74.569" width="3.276" height="3.276" transform="matrix(1,0,0,1,0,0)" fill="rgb(0,0,0)"/></g></g><g><g><path d=" M 91.819 77.845 C 91.436 77.845 90.948 77.845 90.948 77.845 C 90.948 77.845 90.948 76.731 90.948 76.208 C 90.948 75.8 90.948 74.572 90.948 74.572 L 91.77 74.572 C 91.77 74.572 93.882 74.503 94.137 75.014 C 94.531 75.804 92.726 77.845 91.819 77.845 Z " fill="rgb(0,0,0)"/></g></g><g><g><path d=" M 38.535 78.683 C 38.535 78.3 38.534 77.812 38.534 77.812 C 38.534 77.812 39.649 77.812 40.171 77.812 C 40.579 77.812 41.807 77.812 41.807 77.812 L 41.807 78.633 C 41.807 78.633 41.876 80.779 41.365 81.033 C 40.576 81.427 38.535 79.59 38.535 78.683 Z " fill="rgb(0,0,0)"/></g></g><g><g><path d=" M 50.767 77.845 C 51.15 77.845 51.638 77.845 51.638 77.845 C 51.638 77.845 51.638 78.959 51.638 79.481 C 51.638 79.889 51.638 81.118 51.638 81.118 L 50.817 81.118 C 50.817 81.118 48.671 81.186 48.417 80.676 C 48.023 79.886 49.86 77.845 50.767 77.845 Z " fill="rgb(0,0,0)"/></g></g><g><g><g><path d=" M 54.914 78.971 C 54.914 78.66 54.804 78.394 54.584 78.174 C 54.365 77.955 54.099 77.845 53.788 77.845 L 51.638 77.845 L 51.638 81.121 L 54.914 81.121 L 54.914 78.971 Z " fill="rgb(0,0,0)"/></g></g></g><g><g><rect x="68.017" y="77.845" width="3.276" height="3.276" transform="matrix(1,0,0,1,0,0)" fill="rgb(0,0,0)"/></g></g><g><g><rect x="81.121" y="77.845" width="3.276" height="3.276" transform="matrix(1,0,0,1,0,0)" fill="rgb(0,0,0)"/></g></g><g><g><path d=" M 87.672 78.683 C 87.672 78.3 87.672 77.812 87.672 77.812 C 87.672 77.812 88.786 77.812 89.309 77.812 C 89.717 77.812 90.945 77.812 90.945 77.812 L 90.945 78.633 C 90.945 78.633 91.014 80.779 90.503 81.033 C 89.713 81.427 87.672 79.59 87.672 78.683 Z " fill="rgb(0,0,0)"/></g></g><g><g><path d=" M 38.534 83.526 C 38.534 83.909 38.534 84.397 38.534 84.397 C 38.534 84.397 37.42 84.397 36.898 84.397 C 36.49 84.397 35.262 84.397 35.262 84.397 L 35.262 83.575 C 35.262 83.575 35.193 81.43 35.704 81.175 C 36.493 80.782 38.534 82.619 38.534 83.526 Z " fill="rgb(0,0,0)"/></g></g><g><g><path d=" M 45.086 83.526 C 45.086 83.909 45.086 84.397 45.086 84.397 C 45.086 84.397 43.972 84.397 43.45 84.397 C 43.042 84.397 41.813 84.397 41.813 84.397 L 41.813 83.575 C 41.813 83.575 41.745 81.43 42.255 81.175 C 43.045 80.782 45.086 82.619 45.086 83.526 Z " fill="rgb(0,0,0)"/></g></g><g><g><path d=" M 51.638 81.958 C 51.638 81.576 51.638 81.088 51.638 81.088 C 51.638 81.088 52.752 81.088 53.274 81.088 C 53.682 81.088 54.911 81.088 54.911 81.088 L 54.911 81.909 C 54.911 81.909 54.98 84.055 54.469 84.309 C 53.679 84.703 51.638 82.866 51.638 81.958 Z " fill="rgb(0,0,0)"/></g></g><g><g><path d=" M 60.595 81.121 C 60.978 81.121 61.466 81.121 61.466 81.121 C 61.466 81.121 61.466 82.235 61.465 82.757 C 61.466 83.165 61.465 84.393 61.465 84.393 L 60.644 84.393 C 60.644 84.393 58.499 84.462 58.244 83.952 C 57.851 83.162 59.688 81.121 60.595 81.121 Z " fill="rgb(0,0,0)"/></g></g><g><g><path d=" M 62.336 84.397 C 61.953 84.397 61.466 84.397 61.466 84.397 C 61.466 84.397 61.466 83.283 61.466 82.76 C 61.466 82.352 61.466 81.124 61.466 81.124 L 62.287 81.124 C 62.287 81.124 64.4 81.055 64.654 81.566 C 65.048 82.356 63.243 84.397 62.336 84.397 Z " fill="rgb(0,0,0)"/></g></g><g><g><g><path d=" M 71.293 81.121 L 68.017 81.121 L 68.017 83.27 C 68.017 83.582 68.127 83.847 68.347 84.067 C 68.566 84.287 68.832 84.397 69.143 84.397 L 71.293 84.397 L 71.293 81.121 Z " fill="rgb(0,0,0)"/></g></g></g><g><g><rect x="71.293" y="81.121" width="3.276" height="3.276" transform="matrix(1,0,0,1,0,0)" fill="rgb(0,0,0)"/></g></g><g><g><rect x="74.569" y="81.121" width="3.276" height="3.276" transform="matrix(1,0,0,1,0,0)" fill="rgb(0,0,0)"/></g></g><g><g><rect x="77.845" y="81.121" width="3.276" height="3.276" transform="matrix(1,0,0,1,0,0)" fill="rgb(0,0,0)"/></g></g><g><g><rect x="81.121" y="81.121" width="3.276" height="3.276" transform="matrix(1,0,0,1,0,0)" fill="rgb(0,0,0)"/></g></g><g><g><g><path d=" M 87.672 82.247 C 87.672 81.935 87.563 81.67 87.343 81.45 C 87.123 81.231 86.858 81.121 86.546 81.121 L 84.397 81.121 L 84.397 84.397 L 87.672 84.397 L 87.672 82.247 Z " fill="rgb(0,0,0)"/></g></g></g><g><g><g><path d=" M 94.071 83.872 C 94.893 82.337 91.914 80.132 91.1 81.649 C 90.28 83.18 93.262 85.382 94.071 83.872 Z " fill="rgb(0,0,0)"/></g></g></g><g><g><g><path d=" M 31.83 87.147 C 32.652 85.613 29.672 83.407 28.859 84.925 C 28.039 86.456 31.02 88.658 31.83 87.147 Z " fill="rgb(0,0,0)"/></g></g></g><g><g><g><path d=" M 38.534 84.397 L 35.259 84.397 L 35.259 86.546 C 35.259 86.858 35.368 87.123 35.588 87.343 C 35.808 87.563 36.073 87.672 36.385 87.672 L 38.534 87.672 L 38.534 84.397 Z " fill="rgb(0,0,0)"/></g></g></g><g><g><rect x="38.534" y="84.397" width="3.276" height="3.276" transform="matrix(1,0,0,1,0,0)" fill="rgb(0,0,0)"/></g></g><g><g><rect x="41.81" y="84.397" width="3.276" height="3.276" transform="matrix(1,0,0,1,0,0)" fill="rgb(0,0,0)"/></g></g><g><g><g><path d=" M 58.037 87.147 C 58.859 85.613 55.879 83.407 55.066 84.925 C 54.246 86.456 57.227 88.658 58.037 87.147 Z " fill="rgb(0,0,0)"/></g></g></g><g><g><path d=" M 74.569 85.234 C 74.569 84.852 74.569 84.364 74.569 84.364 C 74.569 84.364 75.683 84.364 76.205 84.364 C 76.613 84.364 77.842 84.364 77.842 84.364 L 77.842 85.185 C 77.842 85.185 77.911 87.331 77.4 87.585 C 76.61 87.979 74.569 86.141 74.569 85.234 Z " fill="rgb(0,0,0)"/></g></g><g><g><rect x="81.121" y="84.397" width="3.276" height="3.276" transform="matrix(1,0,0,1,0,0)" fill="rgb(0,0,0)"/></g></g><g><g><rect x="84.397" y="84.397" width="3.276" height="3.276" transform="matrix(1,0,0,1,0,0)" fill="rgb(0,0,0)"/></g></g><g><g><g><path d=" M 90.948 85.523 C 90.948 85.211 90.838 84.946 90.619 84.726 C 90.399 84.506 90.134 84.397 89.822 84.397 L 87.672 84.397 L 87.672 87.672 L 90.948 87.672 L 90.948 85.523 Z " fill="rgb(0,0,0)"/></g></g></g><g><g><path d=" M 97.5 86.802 C 97.5 87.185 97.5 87.672 97.5 87.672 C 97.5 87.672 96.386 87.672 95.864 87.672 C 95.456 87.672 94.227 87.672 94.227 87.672 L 94.227 86.851 C 94.227 86.851 94.158 84.705 94.669 84.451 C 95.459 84.057 97.5 85.895 97.5 86.802 Z " fill="rgb(0,0,0)"/></g></g><g><g><g><path d=" M 35.106 90.423 C 35.928 88.889 32.948 86.683 32.135 88.201 C 31.315 89.732 34.296 91.934 35.106 90.423 Z " fill="rgb(0,0,0)"/></g></g></g><g><g><rect x="41.81" y="87.672" width="3.276" height="3.276" transform="matrix(1,0,0,1,0,0)" fill="rgb(0,0,0)"/></g></g><g><g><rect x="45.086" y="87.672" width="3.276" height="3.276" transform="matrix(1,0,0,1,0,0)" fill="rgb(0,0,0)"/></g></g><g><g><g><path d=" M 51.638 88.798 C 51.638 88.487 51.528 88.222 51.308 88.002 C 51.089 87.782 50.823 87.672 50.512 87.672 L 48.362 87.672 L 48.362 90.948 L 51.638 90.948 L 51.638 88.798 Z " fill="rgb(0,0,0)"/></g></g></g><g><g><path d=" M 61.465 90.078 C 61.465 90.461 61.466 90.948 61.466 90.948 C 61.466 90.948 60.351 90.948 59.829 90.948 C 59.421 90.948 58.193 90.948 58.193 90.948 L 58.193 90.127 C 58.193 90.127 58.124 87.981 58.635 87.727 C 59.424 87.333 61.465 89.171 61.465 90.078 Z " fill="rgb(0,0,0)"/></g></g><g><g><g><path d=" M 74.416 90.423 C 75.238 88.889 72.258 86.683 71.445 88.201 C 70.625 89.732 73.607 91.934 74.416 90.423 Z " fill="rgb(0,0,0)"/></g></g></g><g><g><g><path d=" M 81.121 88.798 L 81.121 87.672 L 78.971 87.672 C 78.66 87.672 78.394 87.782 78.174 88.002 C 77.955 88.222 77.845 88.487 77.845 88.798 L 77.845 90.948 L 81.121 90.948 L 81.121 88.798 Z " fill="rgb(0,0,0)"/></g></g></g><g><g><rect x="81.121" y="87.672" width="3.276" height="3.276" transform="matrix(1,0,0,1,0,0)" fill="rgb(0,0,0)"/></g></g><g><g><rect x="84.397" y="87.672" width="3.276" height="3.276" transform="matrix(1,0,0,1,0,0)" fill="rgb(0,0,0)"/></g></g><g><g><g><path d=" M 90.948 87.672 L 87.672 87.672 L 87.672 90.948 L 89.822 90.948 C 90.134 90.948 90.399 90.838 90.619 90.619 C 90.838 90.399 90.948 90.134 90.948 89.822 L 90.948 87.672 Z " fill="rgb(0,0,0)"/></g></g></g><g><g><path d=" M 94.224 88.51 C 94.224 88.127 94.224 87.64 94.224 87.64 C 94.224 87.64 95.338 87.64 95.861 87.64 C 96.268 87.64 97.497 87.64 97.497 87.64 L 97.497 88.461 C 97.497 88.461 97.566 90.607 97.055 90.861 C 96.265 91.255 94.224 89.417 94.224 88.51 Z " fill="rgb(0,0,0)"/></g></g><g><g><path d=" M 40.94 90.948 C 41.323 90.948 41.81 90.948 41.81 90.948 C 41.81 90.948 41.81 92.062 41.81 92.585 C 41.81 92.993 41.81 94.221 41.81 94.221 L 40.989 94.221 C 40.989 94.221 38.843 94.29 38.589 93.779 C 38.195 92.989 40.033 90.948 40.94 90.948 Z " fill="rgb(0,0,0)"/></g></g><g><g><g><path d=" M 45.086 90.948 L 41.81 90.948 L 41.81 94.224 L 43.96 94.224 C 44.272 94.224 44.537 94.114 44.757 93.895 C 44.976 93.675 45.086 93.409 45.086 93.098 L 45.086 90.948 Z " fill="rgb(0,0,0)"/></g></g></g><g><g><path d=" M 48.362 91.786 C 48.362 91.403 48.362 90.916 48.362 90.916 C 48.362 90.916 49.476 90.916 49.998 90.916 C 50.406 90.916 51.635 90.916 51.635 90.916 L 51.635 91.737 C 51.635 91.737 51.704 93.882 51.193 94.137 C 50.403 94.531 48.362 92.693 48.362 91.786 Z " fill="rgb(0,0,0)"/></g></g><g><g><path d=" M 57.319 90.948 C 57.702 90.948 58.19 90.948 58.19 90.948 C 58.19 90.948 58.19 92.062 58.19 92.585 C 58.19 92.993 58.19 94.221 58.19 94.221 L 57.368 94.221 C 57.368 94.221 55.223 94.29 54.968 93.779 C 54.575 92.989 56.412 90.948 57.319 90.948 Z " fill="rgb(0,0,0)"/></g></g><g><g><rect x="58.19" y="90.948" width="3.276" height="3.276" transform="matrix(1,0,0,1,0,0)" fill="rgb(0,0,0)"/></g></g><g><g><rect x="61.466" y="90.948" width="3.276" height="3.276" transform="matrix(1,0,0,1,0,0)" fill="rgb(0,0,0)"/></g></g><g><g><path d=" M 65.612 94.224 C 65.229 94.224 64.741 94.224 64.741 94.224 C 64.741 94.224 64.741 93.11 64.741 92.588 C 64.741 92.18 64.741 90.951 64.741 90.951 L 65.563 90.951 C 65.563 90.951 67.676 90.883 67.93 91.393 C 68.324 92.183 66.519 94.224 65.612 94.224 Z " fill="rgb(0,0,0)"/></g></g><g><g><g><path d=" M 77.845 92.074 L 77.845 90.948 L 75.695 90.948 C 75.384 90.948 75.118 91.058 74.898 91.278 C 74.679 91.497 74.569 91.763 74.569 92.074 L 74.569 94.224 L 77.845 94.224 L 77.845 92.074 Z " fill="rgb(0,0,0)"/></g></g></g><g><g><g><path d=" M 81.121 90.948 L 77.845 90.948 L 77.845 94.224 L 79.995 94.224 C 80.306 94.224 80.572 94.114 80.791 93.895 C 81.011 93.675 81.121 93.409 81.121 93.098 L 81.121 90.948 Z " fill="rgb(0,0,0)"/></g></g></g><g><g><path d=" M 94.224 93.354 C 94.224 93.736 94.224 94.224 94.224 94.224 C 94.224 94.224 93.11 94.224 92.588 94.224 C 92.18 94.224 90.951 94.224 90.951 94.224 L 90.951 93.403 C 90.951 93.403 90.883 91.257 91.393 91.003 C 92.183 90.609 94.224 92.447 94.224 93.354 Z " fill="rgb(0,0,0)"/></g></g><g><g><g><path d=" M 38.382 96.975 C 39.204 95.441 36.224 93.235 35.411 94.753 C 34.59 96.284 37.572 98.485 38.382 96.975 Z " fill="rgb(0,0,0)"/></g></g></g><g><g><g><path d=" M 48.209 96.975 C 49.031 95.441 46.052 93.235 45.238 94.753 C 44.418 96.284 47.4 98.485 48.209 96.975 Z " fill="rgb(0,0,0)"/></g></g></g><g><g><path d=" M 61.466 95.062 C 61.466 94.679 61.466 94.191 61.466 94.191 C 61.466 94.191 62.58 94.191 63.102 94.191 C 63.51 94.191 64.738 94.191 64.738 94.191 L 64.738 95.013 C 64.738 95.013 64.807 97.158 64.296 97.413 C 63.507 97.806 61.466 95.969 61.466 95.062 Z " fill="rgb(0,0,0)"/></g></g><g><g><path d=" M 74.569 95.062 C 74.569 94.679 74.569 94.191 74.569 94.191 C 74.569 94.191 75.683 94.191 76.205 94.191 C 76.613 94.191 77.842 94.191 77.842 94.191 L 77.842 95.013 C 77.842 95.013 77.911 97.158 77.4 97.413 C 76.61 97.806 74.569 95.969 74.569 95.062 Z " fill="rgb(0,0,0)"/></g></g><g><g><path d=" M 83.526 94.224 C 83.909 94.224 84.397 94.224 84.397 94.224 C 84.397 94.224 84.397 95.338 84.397 95.861 C 84.397 96.268 84.397 97.497 84.397 97.497 L 83.575 97.497 C 83.575 97.497 81.43 97.566 81.175 97.055 C 80.782 96.265 82.619 94.224 83.526 94.224 Z " fill="rgb(0,0,0)"/></g></g><g><g><path d=" M 85.267 97.5 C 84.884 97.5 84.397 97.5 84.397 97.5 C 84.397 97.5 84.397 96.386 84.397 95.864 C 84.397 95.456 84.397 94.227 84.397 94.227 L 85.218 94.227 C 85.218 94.227 87.331 94.158 87.585 94.669 C 87.979 95.459 86.174 97.5 85.267 97.5 Z " fill="rgb(0,0,0)"/></g></g><g><g><path d=" M 90.948 95.062 C 90.948 94.679 90.948 94.191 90.948 94.191 C 90.948 94.191 92.062 94.191 92.585 94.191 C 92.993 94.191 94.221 94.191 94.221 94.191 L 94.221 95.013 C 94.221 95.013 94.29 97.158 93.779 97.413 C 92.989 97.806 90.948 95.969 90.948 95.062 Z " fill="rgb(0,0,0)"/></g></g><g><g><g><path d=" M 5.944 17.601 L 5.941 5.94 L 17.692 5.94 C 20.063 5.94 21.991 7.909 21.991 10.329 L 21.991 21.991 L 10.246 21.991 C 7.874 21.991 5.944 20.023 5.944 17.601 Z " fill="none"/><path d=" M 17.692 25.431 L 10.246 25.431 C 5.976 25.431 2.505 21.918 2.505 17.602 L 2.5 2.5 L 17.692 2.5 C 21.959 2.5 25.431 6.013 25.431 10.329 L 25.431 17.602 L 25.431 25.431 L 17.692 25.431 Z  M 21.991 10.329 C 21.991 7.909 20.063 5.94 17.692 5.94 L 5.941 5.94 L 5.944 17.601 C 5.944 20.023 7.874 21.991 10.246 21.991 L 21.991 21.991 L 21.991 10.329 Z " fill="rgb(0,0,0)"/></g></g></g><g><g><g><path d=" M 78.013 10.33 L 78.01 21.991 L 89.761 21.991 C 92.132 21.991 94.06 20.023 94.06 17.602 L 94.06 5.94 L 82.315 5.94 C 79.943 5.94 78.013 7.909 78.013 10.33 Z " fill="none"/><path d=" M 89.761 2.5 L 82.315 2.5 C 78.045 2.5 74.574 6.013 74.574 10.329 L 74.569 25.431 L 89.761 25.431 C 94.028 25.431 97.5 21.918 97.5 17.602 L 97.5 10.329 L 97.5 2.5 L 89.761 2.5 Z  M 94.06 17.602 C 94.06 20.023 92.132 21.991 89.761 21.991 L 78.01 21.991 L 78.013 10.33 C 78.013 7.909 79.943 5.94 82.315 5.94 L 94.06 5.94 L 94.06 17.602 Z " fill="rgb(0,0,0)"/></g></g></g><g><g><g><path d=" M 5.944 82.399 L 5.941 94.06 L 17.692 94.06 C 20.063 94.06 21.991 92.091 21.991 89.671 L 21.991 78.009 L 10.246 78.009 C 7.874 78.009 5.944 79.977 5.944 82.399 Z " fill="none"/><path d=" M 17.692 74.569 L 10.246 74.569 C 5.976 74.569 2.505 78.082 2.505 82.398 L 2.5 97.5 L 17.692 97.5 C 21.959 97.5 25.431 93.987 25.431 89.671 L 25.431 82.398 L 25.431 74.569 L 17.692 74.569 Z  M 21.991 89.671 C 21.991 92.091 20.063 94.06 17.692 94.06 L 5.941 94.06 L 5.944 82.399 C 5.944 79.977 7.874 78.009 10.246 78.009 L 21.991 78.009 L 21.991 89.671 Z " fill="rgb(0,0,0)"/></g></g></g><g><g><path d=" M 16.201 18.881 L 11.728 18.881 C 11.498 18.881 11.275 18.852 11.062 18.795 C 10.593 18.672 10.174 18.423 9.842 18.084 C 9.781 18.023 9.723 17.958 9.67 17.892 C 9.288 17.423 9.059 16.82 9.059 16.166 L 9.057 9.054 L 16.201 9.054 C 17.672 9.054 18.868 10.272 18.868 11.769 L 18.868 16.164 L 18.868 16.166 L 18.884 18.88 C 18.884 18.88 17.121 18.881 16.201 18.881 Z " fill="rgb(0,0,0)"/></g></g><g><g><path d=" M 88.27 9.05 L 83.797 9.05 C 83.567 9.05 83.343 9.079 83.131 9.136 C 82.662 9.259 82.243 9.509 81.911 9.847 C 81.85 9.908 81.792 9.973 81.739 10.039 C 81.357 10.508 81.128 11.111 81.128 11.765 L 81.126 18.877 L 88.27 18.877 C 89.741 18.877 90.937 17.659 90.937 16.162 L 90.937 11.767 L 90.937 11.765 L 90.953 9.051 C 90.953 9.051 89.19 9.05 88.27 9.05 Z " fill="rgb(0,0,0)"/></g></g><g><g><path d=" M 16.201 81.119 L 11.728 81.119 C 11.498 81.119 11.275 81.148 11.062 81.205 C 10.593 81.328 10.174 81.577 9.842 81.916 C 9.781 81.977 9.723 82.042 9.67 82.108 C 9.288 82.577 9.059 83.18 9.059 83.834 L 9.057 90.946 L 16.201 90.946 C 17.672 90.946 18.868 89.728 18.868 88.231 L 18.868 83.836 L 18.868 83.834 L 18.884 81.12 C 18.884 81.12 17.121 81.119 16.201 81.119 Z " fill="rgb(0,0,0)"/></g></g></g><linearGradient id="_lgradient_0" x1="0.2500035986756874" y1="-0.5699999999999998" x2="0.3018763069990934" y2="1.020285925792545" gradientTransform="matrix(19.312,0,0,22.342,40.344,40.205)" gradientUnits="userSpaceOnUse"><stop offset="0%" stop-opacity="0" style="stop-color:rgb(255,255,255)"/><stop offset="69.53011578207705%" stop-opacity="1" style="stop-color:rgb(0,0,0)"/></linearGradient><path d=" M 55.556 61.947 L 40.344 40.205 L 43.972 40.205 L 59.533 61.947 C 59.784 62.272 59.634 62.547 59.233 62.547 L 56.706 62.547 C 56.306 62.547 55.781 62.297 55.556 61.947 L 55.556 61.947 Z " fill="url(#_lgradient_0)"/><path d=" M 43.772 61.746 L 43.672 52.73 L 49.876 52.73 Q 52.378 52.73 49.876 52.73 C 54.205 52.73 58.808 51.554 58.658 45.167 C 58.683 39.758 54.555 37.528 49.926 37.453 L 41.07 37.453 C 40.88 37.447 40.695 37.517 40.558 37.65 C 40.421 37.782 40.344 37.964 40.344 38.154 L 40.344 40.158 L 50.126 40.158 C 51.553 40.208 53.004 40.533 54.129 41.561 C 55.098 42.496 55.625 43.797 55.581 45.142 C 55.581 46.52 55.155 47.871 54.129 48.747 C 52.954 49.75 51.377 50 49.926 50 L 41.045 50 C 40.658 50 40.344 50.314 40.344 50.701 L 40.344 61.746 C 40.358 62.151 40.69 62.472 41.095 62.472 L 43.046 62.472 C 43.447 62.472 43.772 62.147 43.772 61.721 L 43.772 61.746 Z " fill="rgb(0,0,0)"/></g></svg>