<?xml version="1.0" standalone="no"?><!-- Generator: Gravit.io --><svg xmlns="http://www.w3.org/2000/svg" xmlns:xlink="http://www.w3.org/1999/xlink" style="isolation:isolate" viewBox="0 0 100 100" width="100" height="100"><defs><clipPath id="_clipPath_AR9mfK6n597bX5XrViTnUZNG3vZrBRN5"><rect width="100" height="100"/></clipPath></defs><g clip-path="url(#_clipPath_AR9mfK6n597bX5XrViTnUZNG3vZrBRN5)"><path d=" M 56.609 62.395 C 56.76 62.545 57.063 62.771 57.289 62.771 L 61.295 62.771 C 61.521 62.771 61.824 62.545 61.975 62.395 L 63.033 61.265 C 63.184 61.114 63.259 60.963 63.259 60.812 L 64.393 56.97 C 64.469 56.593 64.393 56.216 64.166 55.99 L 63.335 55.312 C 63.184 55.161 62.882 55.237 62.655 55.237 L 59.027 55.237 L 58.876 55.086 L 58.801 55.011 C 58.65 55.011 58.498 54.935 58.347 55.086 L 56.911 55.99 C 56.76 55.99 56.685 56.367 56.609 56.518 L 55.4 60.21 C 55.249 60.586 55.324 61.038 55.627 61.34 L 56.609 62.395 L 56.609 62.395 Z  M 57.214 82.287 L 56.911 82.362 L 56.005 82.362 L 61.446 66.464 C 61.597 65.936 61.37 65.333 60.841 65.183 L 60.539 65.107 L 51.395 65.107 C 51.017 65.183 50.715 65.484 50.639 65.861 L 50.11 67.744 C 49.959 68.272 50.337 68.724 50.866 68.875 L 51.092 68.799 L 52.453 68.799 L 46.936 84.547 C 46.785 85.075 47.012 85.753 47.541 85.979 L 47.843 86.205 L 56.307 86.205 C 56.76 86.205 57.138 85.828 57.289 85.376 L 57.818 83.568 C 58.045 83.04 57.743 82.437 57.214 82.287 L 57.214 82.287 Z  M 97.342 67.443 L 95.906 65.559 L 95.906 65.484 C 95.679 65.258 95.453 65.032 95.15 65.032 L 89.709 65.032 C 89.407 65.032 89.18 65.333 88.954 65.484 L 87.442 67.292 L 85.099 67.292 L 83.512 65.484 L 83.512 65.409 C 83.361 65.183 83.059 65.032 82.757 65.032 L 79.734 65.032 L 94.999 49.812 L 77.92 32.934 L 93.186 17.261 L 93.186 10.48 L 91.07 7.767 L 60.161 7.767 L 57.667 10.405 L 57.667 12.59 L 49.128 4 L 43.309 9.651 L 41.495 7.767 L 10.964 7.767 L 8.546 10.555 L 8.546 17.638 L 10.813 19.823 L 13.08 19.823 L 13.08 39.489 L 2.5 50.038 L 13.08 60.586 L 13.08 84.698 L 17.01 86.883 L 25.776 86.883 L 32.653 79.725 L 48.976 96 L 59.934 85.075 C 60.01 85.376 60.237 85.451 60.614 85.602 L 60.917 85.451 L 68.02 85.451 C 68.474 85.451 68.852 85.376 68.927 84.999 L 69.456 83.492 C 69.607 82.965 69.381 82.513 68.852 82.362 L 68.549 82.437 L 68.247 82.437 L 70.816 74.375 L 72.555 72.642 L 76.333 72.642 L 72.555 84.622 C 72.403 85.15 72.706 85.451 73.235 85.677 L 73.537 85.527 L 80.414 85.527 C 80.792 85.527 81.17 85.451 81.321 85.075 L 81.925 83.718 C 82.152 83.191 81.85 82.739 81.396 82.513 C 81.321 82.437 81.17 82.513 81.019 82.513 L 80.716 82.513 L 83.89 72.717 L 88.5 72.717 L 84.646 84.698 C 84.495 85.225 84.797 85.527 85.326 85.677 L 85.628 85.451 L 93.186 85.451 C 93.563 85.451 93.941 85.376 94.092 84.999 L 94.697 83.492 C 94.924 82.965 94.621 82.513 94.092 82.362 C 94.017 82.287 93.866 82.437 93.715 82.437 L 93.186 82.437 L 97.418 68.498 C 97.569 68.121 97.493 67.669 97.342 67.443 L 97.342 67.443 Z  M 49.128 5.432 L 57.667 13.946 L 57.667 17.487 L 60.237 20.577 L 61.446 20.577 L 39.53 41.674 L 39.53 20.577 L 42.024 20.577 L 44.064 17.412 L 44.064 10.706 L 43.913 10.48 L 49.128 5.432 Z  M 3.936 50.038 L 13.08 40.921 L 13.08 59.155 L 3.936 50.038 Z  M 33.333 78.896 L 77.467 33.687 L 93.639 49.887 L 78.374 65.107 L 78.298 65.107 C 78.071 65.183 77.92 65.333 77.769 65.484 L 76.182 67.292 L 73.99 67.292 L 72.328 65.484 C 72.177 65.258 71.874 65.032 71.572 65.032 L 64.922 65.032 C 64.469 65.032 64.091 65.333 63.94 65.785 L 63.335 67.669 C 63.184 68.197 63.411 68.649 63.94 68.875 L 65.073 68.875 L 60.237 83.115 L 48.825 94.568 L 33.333 78.896 L 33.333 78.896 Z " fill="rgb(0,0,0)"/></g></svg>