<?xml version="1.0" standalone="no"?><!-- Generator: Gravit.io --><svg xmlns="http://www.w3.org/2000/svg" xmlns:xlink="http://www.w3.org/1999/xlink" style="isolation:isolate" viewBox="0 0 60 60" width="60" height="60"><defs><clipPath id="_clipPath_4Wtoqaf5aLAXcwkSIBp5lPJsxDSEx4jq"><rect width="60" height="60"/></clipPath></defs><g clip-path="url(#_clipPath_4Wtoqaf5aLAXcwkSIBp5lPJsxDSEx4jq)"><g><path d=" M 39.214 4.685 C 37.652 4.685 36.244 5.176 34.955 5.863 C 33.384 5.543 31.755 5.379 30.091 5.379 C 26.302 5.379 22.744 6.306 19.547 7.857 C 19.177 7.772 18.826 7.645 18.43 7.645 C 15.856 7.645 13.813 9.583 13.446 12.056 C 8.774 16.48 5.833 22.701 5.833 29.637 C 5.833 31.691 6.168 33.655 6.648 35.558 C 5.863 36.563 5.289 37.751 5.289 39.124 C 5.289 42.388 7.945 45.045 11.21 45.045 C 11.297 45.045 11.365 44.988 11.451 44.984 C 15.904 50.383 22.552 53.926 30.091 53.926 C 30.431 53.926 30.75 53.849 31.088 53.836 C 32.401 54.696 33.873 55.316 35.559 55.316 C 39.111 55.316 42.117 53.068 43.322 49.938 C 45.49 48.522 47.358 46.729 48.972 44.712 C 52.33 42.907 54.711 39.454 54.711 35.378 C 54.711 34.288 54.379 33.317 54.077 32.327 C 54.176 31.432 54.348 30.558 54.348 29.637 C 54.348 23.603 52.077 18.145 48.427 13.899 C 48.427 8.809 44.303 4.685 39.214 4.685 Z " fill-rule="evenodd" fill="none" vector-effect="non-scaling-stroke" stroke-width="3.119" stroke="rgb(0,255,0)" stroke-linejoin="round" stroke-linecap="round" stroke-miterlimit="4"/><path d=" M 21.125 25.649 C 21.125 27.617 19.528 29.214 17.559 29.214 C 15.591 29.214 13.994 27.617 13.994 25.649 C 13.994 23.679 15.591 22.082 17.559 22.082 C 19.528 22.082 21.125 23.679 21.125 25.649 Z " fill-rule="evenodd" fill="rgb(0,255,0)" vector-effect="non-scaling-stroke" stroke-width="1.813" stroke="rgb(0,255,0)" stroke-linejoin="round" stroke-linecap="butt" stroke-miterlimit="4"/><path d=" M 29.997 14.69 C 29.997 16.082 28.867 17.212 27.475 17.212 C 26.082 17.212 24.952 16.082 24.952 14.69 C 24.952 13.297 26.082 12.166 27.475 12.166 C 28.867 12.166 29.997 13.297 29.997 14.69 Z " fill-rule="evenodd" fill="rgb(0,255,0)" vector-effect="non-scaling-stroke" stroke-width="1.813" stroke="rgb(0,255,0)" stroke-linejoin="round" stroke-linecap="butt" stroke-miterlimit="4"/><path d=" M 42.348 20.169 C 42.348 21.513 41.257 22.604 39.912 22.604 C 38.568 22.604 37.477 21.513 37.477 20.169 C 37.477 18.824 38.568 17.733 39.912 17.733 C 41.257 17.733 42.348 18.824 42.348 20.169 Z " fill-rule="evenodd" fill="rgb(0,255,0)" vector-effect="non-scaling-stroke" stroke-width="1.813" stroke="rgb(0,255,0)" stroke-linejoin="round" stroke-linecap="butt" stroke-miterlimit="4"/><path d=" M 26.344 42.435 C 26.344 44.739 24.474 46.61 22.17 46.61 C 19.865 46.61 17.994 44.739 17.994 42.435 C 17.994 40.13 19.865 38.259 22.17 38.259 C 24.474 38.259 26.344 40.13 26.344 42.435 Z " fill-rule="evenodd" fill="rgb(0,255,0)" vector-effect="non-scaling-stroke" stroke-width="1.813" stroke="rgb(0,255,0)" stroke-linejoin="round" stroke-linecap="butt" stroke-miterlimit="4"/><path d=" M 31.737 29.301 C 31.737 30.309 30.918 31.127 29.91 31.127 C 28.901 31.127 28.084 30.309 28.084 29.301 C 28.084 28.293 28.901 27.475 29.91 27.475 C 30.918 27.475 31.737 28.293 31.737 29.301 Z " fill-rule="evenodd" fill="rgb(0,255,0)" vector-effect="non-scaling-stroke" stroke-width="1.813" stroke="rgb(0,255,0)" stroke-linejoin="round" stroke-linecap="butt" stroke-miterlimit="4"/><path d=" M 47.044 38.085 C 47.044 40.294 45.252 42.087 43.044 42.087 C 40.835 42.087 39.043 40.294 39.043 38.085 C 39.043 35.877 40.835 34.085 43.044 34.085 C 45.252 34.085 47.044 35.877 47.044 38.085 Z " fill-rule="evenodd" fill="rgb(0,255,0)" vector-effect="non-scaling-stroke" stroke-width="1.813" stroke="rgb(0,255,0)" stroke-linejoin="round" stroke-linecap="butt" stroke-miterlimit="4"/></g></g></svg>